<?xml version="1.0" encoding="UTF-8"?>
<svg xmlns="http://www.w3.org/2000/svg" xmlns:xlink="http://www.w3.org/1999/xlink" width="1170.57" height="627.9300000000001"><defs/><rect width="100%" height="100%" fill="#FFFFFF"/><g transform="scale(1.33) translate(925,345)" style="fill:none;"><g transform="translate(-386,-318)"><path d="M28,153Q28,-21 75,15" stroke="#707070" stroke-width="1" stroke-linecap="round"/></g><g transform="translate(-386,-254)"><path d="M28,89Q28,-12 75,24" stroke="#707070" stroke-width="1" stroke-linecap="round"/></g><g transform="translate(-386,-180)"><path d="M28,15Q28,64 89,43" stroke="#707070" stroke-width="1" stroke-linecap="round"/></g><g transform="translate(-297,-177)"><path d="M71,40Q71,15 101,15" stroke="#707070" stroke-width="1" stroke-linecap="round"/></g><g transform="translate(-297,-152)"><path d="M71,15Q71,40 101,40" stroke="#707070" stroke-width="1" stroke-linecap="round"/></g><g transform="translate(-566,-64)"><path d="M28,65Q28,-21 75,15" stroke="#707070" stroke-width="1" stroke-linecap="round"/></g><g transform="translate(-491,-64)"><path d="M88,15L118,15" stroke="#707070" stroke-width="1" stroke-linecap="round"/></g><g transform="translate(-720,-23)"><path d="M164,24L133,24" stroke="#707070" stroke-width="1" stroke-linecap="round"/></g><g transform="translate(-898,-48)"><path d="M188,49Q188,24 158,24" stroke="#707070" stroke-width="1" stroke-linecap="round"/></g><g transform="translate(-866,-23)"><path d="M156,24Q156,58 126,58" stroke="#707070" stroke-width="1" stroke-linecap="round"/></g><g transform="translate(-566,-14)"><path d="M45,15L75,15" stroke="#707070" stroke-width="1" stroke-linecap="round"/></g><g transform="translate(-566,-14)"><path d="M28,15Q28,134 75,98" stroke="#707070" stroke-width="1" stroke-linecap="round"/></g><g transform="translate(-792,-263)"><path d="M149,66Q149,-21 100,15" stroke="#707070" stroke-width="1" stroke-linecap="round"/></g><g transform="translate(-852,-313)"><path d="M110,65Q110,-21 40,15" stroke="#707070" stroke-width="1" stroke-linecap="round"/></g><g transform="translate(-855,-263)"><path d="M73,15L43,15" stroke="#707070" stroke-width="1" stroke-linecap="round"/></g><g transform="translate(-850,-263)"><path d="M108,15Q108,101 38,65" stroke="#707070" stroke-width="1" stroke-linecap="round"/></g><g transform="translate(-386,-180)"><rect x="0" y="0" width="55" height="30" border="1" rx="10" ry="10" style="fill:#22AAE0;stroke:#707070;stroke-width:1px;"/><g transform="translate (6 6) scale(0.005859375)" style="fill:#4F4F4F;"><g transform="translate(57.833333333333485 2048) scale (1 -1)"><path d="M774 -20Q577 -20 465 123L449 123Q465 -17 465 -39L465 -492L160 -492L160 1118L408 1118L451 973L465 973Q572 1139 782 1139Q980 1139 1092 986Q1204 833 1204 561Q1204 382 1151.5 250Q1099 118 1002 49Q905 -20 774 -20ZM684 895Q571 895 519 825.5Q467 756 465 596L465 563Q465 383 518.5 305Q572 227 688 227Q893 227 893 565Q893 730 842.5 812.5Q792 895 684 895Z"/></g><g transform="translate(1353.8333333333335 2048) scale (1 -1)"><path d="M465 0L160 0L160 1556L465 1556Z"/></g><g transform="translate(1978.8333333333335 2048) scale (1 -1)"><path d="M870 0L811 152L803 152Q726 55 644.5 17.5Q563 -20 432 -20Q271 -20 178.5 72Q86 164 86 334Q86 512 210.5 596.5Q335 681 586 690L780 696L780 745Q780 915 606 915Q472 915 291 834L190 1040Q383 1141 618 1141Q843 1141 963 1043Q1083 945 1083 745L1083 0ZM780 518L662 514Q529 510 464 466Q399 422 399 332Q399 203 547 203Q653 203 716.5 264Q780 325 780 426Z"/></g><g transform="translate(3215.8333333333335 2048) scale (1 -1)"><path d="M1192 0L887 0L887 653Q887 774 844 834.5Q801 895 707 895Q579 895 522 809.5Q465 724 465 526L465 0L160 0L160 1118L393 1118L434 975L451 975Q502 1056 591.5 1097.5Q681 1139 795 1139Q990 1139 1091 1033.5Q1192 928 1192 729Z"/></g><g transform="translate(4561.833333333334 2048) scale (1 -1)"><path d="M631 223Q711 223 823 258L823 31Q709 -20 543 -20Q360 -20 276.5 72.5Q193 165 193 350L193 889L47 889L47 1018L215 1120L303 1356L498 1356L498 1118L811 1118L811 889L498 889L498 350Q498 285 534.5 254Q571 223 631 223Z"/></g><g transform="translate(5450.833333333334 2048) scale (1 -1)"><path d="M61 424L61 674L598 674L598 424Z"/></g><g transform="translate(6109.833333333334 2048) scale (1 -1)"><path d="M614 934Q826 934 951.5 815Q1077 696 1077 489Q1077 244 926 112Q775 -20 494 -20Q250 -20 100 59L100 326Q179 284 284 257.5Q389 231 483 231Q766 231 766 463Q766 684 473 684Q420 684 356 673.5Q292 663 252 651L129 717L184 1462L977 1462L977 1200L455 1200L428 913L463 920Q524 934 614 934Z"/></g></g></g><g transform="translate(-311,-318)"><rect x="0" y="0" width="94" height="30" border="1" rx="10" ry="10" style="fill:#E0E0E0;stroke:#707070;stroke-width:1px;"/><g transform="translate (6 6) scale(0.005859375)" style="fill:#4F4F4F;"><g transform="translate(67.83333333333303 2048) scale (1 -1)"><path d="M494 813L594 813Q741 813 811 862Q881 911 881 1016Q881 1120 809.5 1164Q738 1208 588 1208L494 1208ZM494 561L494 0L184 0L184 1462L610 1462Q908 1462 1051 1353.5Q1194 1245 1194 1024Q1194 895 1123 794.5Q1052 694 922 637L1352 0L1008 0L659 561Z"/></g><g transform="translate(1419.833333333333 2048) scale (1 -1)"><path d="M623 922Q526 922 471 860.5Q416 799 408 686L836 686Q834 799 777 860.5Q720 922 623 922ZM666 -20Q396 -20 244 129Q92 278 92 551Q92 832 232.5 985.5Q373 1139 621 1139Q858 1139 990 1004Q1122 869 1122 631L1122 483L401 483Q406 353 478 280Q550 207 680 207Q781 207 871 228Q961 249 1059 295L1059 59Q979 19 888 -0.5Q797 -20 666 -20Z"/></g><g transform="translate(2629.833333333333 2048) scale (1 -1)"><path d="M774 -20Q577 -20 465 123L449 123Q465 -17 465 -39L465 -492L160 -492L160 1118L408 1118L451 973L465 973Q572 1139 782 1139Q980 1139 1092 986Q1204 833 1204 561Q1204 382 1151.5 250Q1099 118 1002 49Q905 -20 774 -20ZM684 895Q571 895 519 825.5Q467 756 465 596L465 563Q465 383 518.5 305Q572 227 688 227Q893 227 893 565Q893 730 842.5 812.5Q792 895 684 895Z"/></g><g transform="translate(3925.833333333333 2048) scale (1 -1)"><path d="M784 1139Q846 1139 887 1130L864 844Q827 854 774 854Q628 854 546.5 779Q465 704 465 569L465 0L160 0L160 1118L391 1118L436 930L451 930Q503 1024 591.5 1081.5Q680 1139 784 1139Z"/></g><g transform="translate(4855.833333333333 2048) scale (1 -1)"><path d="M403 561Q403 395 457.5 310Q512 225 635 225Q757 225 810.5 309.5Q864 394 864 561Q864 727 810 810Q756 893 633 893Q511 893 457 810.5Q403 728 403 561ZM1176 561Q1176 288 1032 134Q888 -20 631 -20Q470 -20 347 50.5Q224 121 158 253Q92 385 92 561Q92 835 235 987Q378 1139 637 1139Q798 1139 921 1069Q1044 999 1110 868Q1176 737 1176 561Z"/></g><g transform="translate(6123.833333333333 2048) scale (1 -1)"><path d="M514 -20Q317 -20 204.5 133Q92 286 92 557Q92 832 206.5 985.5Q321 1139 522 1139Q733 1139 844 975L854 975Q831 1100 831 1198L831 1556L1137 1556L1137 0L903 0L844 145L831 145Q727 -20 514 -20ZM621 223Q738 223 792.5 291Q847 359 852 522L852 555Q852 735 796.5 813Q741 891 616 891Q514 891 457.5 804.5Q401 718 401 553Q401 388 458 305.5Q515 223 621 223Z"/></g><g transform="translate(7419.833333333333 2048) scale (1 -1)"><path d="M952 0L911 143L895 143Q846 65 756 22.5Q666 -20 551 -20Q354 -20 254 85.5Q154 191 154 389L154 1118L459 1118L459 465Q459 344 502 283.5Q545 223 639 223Q767 223 824 308.5Q881 394 881 592L881 1118L1186 1118L1186 0Z"/></g><g transform="translate(8765.833333333332 2048) scale (1 -1)"><path d="M614 -20Q92 -20 92 553Q92 838 234 988.5Q376 1139 641 1139Q835 1139 989 1063L899 827Q827 856 765 874.5Q703 893 641 893Q403 893 403 555Q403 227 641 227Q729 227 804 250.5Q879 274 954 324L954 63Q880 16 804.5 -2Q729 -20 614 -20Z"/></g><g transform="translate(9818.833333333332 2048) scale (1 -1)"><path d="M631 223Q711 223 823 258L823 31Q709 -20 543 -20Q360 -20 276.5 72.5Q193 165 193 350L193 889L47 889L47 1018L215 1120L303 1356L498 1356L498 1118L811 1118L811 889L498 889L498 350Q498 285 534.5 254Q571 223 631 223Z"/></g><g transform="translate(10707.833333333332 2048) scale (1 -1)"><path d="M147 1407Q147 1556 313 1556Q479 1556 479 1407Q479 1336 437.5 1296.5Q396 1257 313 1257Q147 1257 147 1407ZM465 0L160 0L160 1118L465 1118Z"/></g><g transform="translate(11332.833333333332 2048) scale (1 -1)"><path d="M403 561Q403 395 457.5 310Q512 225 635 225Q757 225 810.5 309.5Q864 394 864 561Q864 727 810 810Q756 893 633 893Q511 893 457 810.5Q403 728 403 561ZM1176 561Q1176 288 1032 134Q888 -20 631 -20Q470 -20 347 50.5Q224 121 158 253Q92 385 92 561Q92 835 235 987Q378 1139 637 1139Q798 1139 921 1069Q1044 999 1110 868Q1176 737 1176 561Z"/></g><g transform="translate(12600.833333333332 2048) scale (1 -1)"><path d="M1192 0L887 0L887 653Q887 774 844 834.5Q801 895 707 895Q579 895 522 809.5Q465 724 465 526L465 0L160 0L160 1118L393 1118L434 975L451 975Q502 1056 591.5 1097.5Q681 1139 795 1139Q990 1139 1091 1033.5Q1192 928 1192 729Z"/></g></g></g><g transform="translate(-311,-254)"><rect x="0" y="0" width="158" height="48" border="1" rx="10" ry="10" style="fill:#E0E0E0;stroke:#707070;stroke-width:1px;"/><g transform="translate (6 6) scale(0.005859375)" style="fill:#4F4F4F;"><g transform="translate(1272.166666666666 2048) scale (1 -1)"><path d="M184 0L184 1462L494 1462L494 256L1087 256L1087 0Z"/></g><g transform="translate(2429.166666666666 2048) scale (1 -1)"><path d="M147 1407Q147 1556 313 1556Q479 1556 479 1407Q479 1336 437.5 1296.5Q396 1257 313 1257Q147 1257 147 1407ZM465 0L160 0L160 1118L465 1118Z"/></g><g transform="translate(3054.166666666666 2048) scale (1 -1)"><path d="M778 889L514 889L514 0L209 0L209 889L41 889L41 1036L209 1118L209 1200Q209 1391 303 1479Q397 1567 604 1567Q762 1567 885 1520L807 1296Q715 1325 637 1325Q572 1325 543 1286.5Q514 1248 514 1188L514 1118L778 1118Z"/></g><g transform="translate(3847.166666666666 2048) scale (1 -1)"><path d="M623 922Q526 922 471 860.5Q416 799 408 686L836 686Q834 799 777 860.5Q720 922 623 922ZM666 -20Q396 -20 244 129Q92 278 92 551Q92 832 232.5 985.5Q373 1139 621 1139Q858 1139 990 1004Q1122 869 1122 631L1122 483L401 483Q406 353 478 280Q550 207 680 207Q781 207 871 228Q961 249 1059 295L1059 59Q979 19 888 -0.5Q797 -20 666 -20Z"/></g><g transform="translate(5589.166666666666 2048) scale (1 -1)"><path d="M614 -20Q92 -20 92 553Q92 838 234 988.5Q376 1139 641 1139Q835 1139 989 1063L899 827Q827 856 765 874.5Q703 893 641 893Q403 893 403 555Q403 227 641 227Q729 227 804 250.5Q879 274 954 324L954 63Q880 16 804.5 -2Q729 -20 614 -20Z"/></g><g transform="translate(6642.166666666666 2048) scale (1 -1)"><path d="M0 1118L334 1118L545 489Q572 407 582 295L588 295Q599 398 631 489L838 1118L1165 1118L692 -143Q627 -318 506.5 -405Q386 -492 225 -492Q146 -492 70 -475L70 -233Q125 -246 190 -246Q271 -246 331.5 -196.5Q392 -147 426 -47L444 8Z"/></g><g transform="translate(7807.166666666666 2048) scale (1 -1)"><path d="M614 -20Q92 -20 92 553Q92 838 234 988.5Q376 1139 641 1139Q835 1139 989 1063L899 827Q827 856 765 874.5Q703 893 641 893Q403 893 403 555Q403 227 641 227Q729 227 804 250.5Q879 274 954 324L954 63Q880 16 804.5 -2Q729 -20 614 -20Z"/></g><g transform="translate(8860.166666666666 2048) scale (1 -1)"><path d="M465 0L160 0L160 1556L465 1556Z"/></g><g transform="translate(9485.166666666666 2048) scale (1 -1)"><path d="M623 922Q526 922 471 860.5Q416 799 408 686L836 686Q834 799 777 860.5Q720 922 623 922ZM666 -20Q396 -20 244 129Q92 278 92 551Q92 832 232.5 985.5Q373 1139 621 1139Q858 1139 990 1004Q1122 869 1122 631L1122 483L401 483Q406 353 478 280Q550 207 680 207Q781 207 871 228Q961 249 1059 295L1059 59Q979 19 888 -0.5Q797 -20 666 -20Z"/></g><g transform="translate(11227.166666666666 2048) scale (1 -1)"><path d="M403 561Q403 395 457.5 310Q512 225 635 225Q757 225 810.5 309.5Q864 394 864 561Q864 727 810 810Q756 893 633 893Q511 893 457 810.5Q403 728 403 561ZM1176 561Q1176 288 1032 134Q888 -20 631 -20Q470 -20 347 50.5Q224 121 158 253Q92 385 92 561Q92 835 235 987Q378 1139 637 1139Q798 1139 921 1069Q1044 999 1110 868Q1176 737 1176 561Z"/></g><g transform="translate(12495.166666666666 2048) scale (1 -1)"><path d="M778 889L514 889L514 0L209 0L209 889L41 889L41 1036L209 1118L209 1200Q209 1391 303 1479Q397 1567 604 1567Q762 1567 885 1520L807 1296Q715 1325 637 1325Q572 1325 543 1286.5Q514 1248 514 1188L514 1118L778 1118Z"/></g><g transform="translate(13820.166666666666 2048) scale (1 -1)"><path d="M778 889L514 889L514 0L209 0L209 889L41 889L41 1036L209 1118L209 1200Q209 1391 303 1479Q397 1567 604 1567Q762 1567 885 1520L807 1296Q715 1325 637 1325Q572 1325 543 1286.5Q514 1248 514 1188L514 1118L778 1118ZM1258 0L953 0L953 1556L1258 1556Z"/></g><g transform="translate(15237.166666666666 2048) scale (1 -1)"><path d="M403 561Q403 395 457.5 310Q512 225 635 225Q757 225 810.5 309.5Q864 394 864 561Q864 727 810 810Q756 893 633 893Q511 893 457 810.5Q403 728 403 561ZM1176 561Q1176 288 1032 134Q888 -20 631 -20Q470 -20 347 50.5Q224 121 158 253Q92 385 92 561Q92 835 235 987Q378 1139 637 1139Q798 1139 921 1069Q1044 999 1110 868Q1176 737 1176 561Z"/></g><g transform="translate(16505.166666666664 2048) scale (1 -1)"><path d="M1079 0L993 391L879 885L870 885L666 0L338 0L20 1118L324 1118L453 623Q475 535 514 256L522 256Q526 332 557 497L573 582L711 1118L1047 1118L1178 582Q1190 527 1207.5 420.5Q1225 314 1227 256L1235 256Q1246 345 1266 458.5Q1286 572 1300 623L1434 1118L1733 1118L1411 0Z"/></g><g transform="translate(18258.166666666664 2048) scale (1 -1)"><path d="M623 922Q526 922 471 860.5Q416 799 408 686L836 686Q834 799 777 860.5Q720 922 623 922ZM666 -20Q396 -20 244 129Q92 278 92 551Q92 832 232.5 985.5Q373 1139 621 1139Q858 1139 990 1004Q1122 869 1122 631L1122 483L401 483Q406 353 478 280Q550 207 680 207Q781 207 871 228Q961 249 1059 295L1059 59Q979 19 888 -0.5Q797 -20 666 -20Z"/></g><g transform="translate(19468.166666666664 2048) scale (1 -1)"><path d="M784 1139Q846 1139 887 1130L864 844Q827 854 774 854Q628 854 546.5 779Q465 704 465 569L465 0L160 0L160 1118L391 1118L436 930L451 930Q503 1024 591.5 1081.5Q680 1139 784 1139Z"/></g><g transform="translate(20398.166666666664 2048) scale (1 -1)"><path d="M147 1407Q147 1556 313 1556Q479 1556 479 1407Q479 1336 437.5 1296.5Q396 1257 313 1257Q147 1257 147 1407ZM465 0L160 0L160 1118L465 1118Z"/></g><g transform="translate(21023.166666666664 2048) scale (1 -1)"><path d="M1192 0L887 0L887 653Q887 774 844 834.5Q801 895 707 895Q579 895 522 809.5Q465 724 465 526L465 0L160 0L160 1118L393 1118L434 975L451 975Q502 1056 591.5 1097.5Q681 1139 795 1139Q990 1139 1091 1033.5Q1192 928 1192 729Z"/></g><g transform="translate(22369.166666666664 2048) scale (1 -1)"><path d="M623 219Q746 219 799 289.5Q852 360 852 518L852 555Q852 734 796.5 812.5Q741 891 618 891Q403 891 403 553Q403 385 456.5 302Q510 219 623 219ZM1137 -2Q1137 -243 996.5 -367.5Q856 -492 578 -492Q333 -492 160 -426L160 -182Q363 -268 596 -268Q831 -268 831 -14L831 8L840 145L831 145Q724 -20 514 -20Q313 -20 202.5 135Q92 290 92 557Q92 832 206.5 985.5Q321 1139 522 1139Q728 1139 846 975L854 975L879 1118L1137 1118Z"/></g><g transform="translate(9762.166666666666 5120) scale (1 -1)"><path d="M774 -20Q577 -20 465 123L449 123Q465 -17 465 -39L465 -492L160 -492L160 1118L408 1118L451 973L465 973Q572 1139 782 1139Q980 1139 1092 986Q1204 833 1204 561Q1204 382 1151.5 250Q1099 118 1002 49Q905 -20 774 -20ZM684 895Q571 895 519 825.5Q467 756 465 596L465 563Q465 383 518.5 305Q572 227 688 227Q893 227 893 565Q893 730 842.5 812.5Q792 895 684 895Z"/></g><g transform="translate(11058.166666666666 5120) scale (1 -1)"><path d="M465 0L160 0L160 1556L465 1556Z"/></g><g transform="translate(11683.166666666666 5120) scale (1 -1)"><path d="M870 0L811 152L803 152Q726 55 644.5 17.5Q563 -20 432 -20Q271 -20 178.5 72Q86 164 86 334Q86 512 210.5 596.5Q335 681 586 690L780 696L780 745Q780 915 606 915Q472 915 291 834L190 1040Q383 1141 618 1141Q843 1141 963 1043Q1083 945 1083 745L1083 0ZM780 518L662 514Q529 510 464 466Q399 422 399 332Q399 203 547 203Q653 203 716.5 264Q780 325 780 426Z"/></g><g transform="translate(12920.166666666666 5120) scale (1 -1)"><path d="M1192 0L887 0L887 653Q887 774 844 834.5Q801 895 707 895Q579 895 522 809.5Q465 724 465 526L465 0L160 0L160 1118L393 1118L434 975L451 975Q502 1056 591.5 1097.5Q681 1139 795 1139Q990 1139 1091 1033.5Q1192 928 1192 729Z"/></g><g transform="translate(14266.166666666666 5120) scale (1 -1)"><path d="M631 223Q711 223 823 258L823 31Q709 -20 543 -20Q360 -20 276.5 72.5Q193 165 193 350L193 889L47 889L47 1018L215 1120L303 1356L498 1356L498 1118L811 1118L811 889L498 889L498 350Q498 285 534.5 254Q571 223 631 223Z"/></g></g></g><g transform="translate(-297,-152)"><rect x="0" y="0" width="81" height="30" border="1" rx="10" ry="10" style="fill:#E0E0E0;stroke:#707070;stroke-width:1px;"/><g transform="translate (6 6) scale(0.005859375)" style="fill:#4F4F4F;"><g transform="translate(66.5 2048) scale (1 -1)"><path d="M1079 0L973 348L440 348L334 0L0 0L516 1468L895 1468L1413 0ZM899 608Q752 1081 733.5 1143Q715 1205 707 1241Q674 1113 518 608Z"/></g><g transform="translate(1479.5 2048) scale (1 -1)"><path d="M623 219Q746 219 799 289.5Q852 360 852 518L852 555Q852 734 796.5 812.5Q741 891 618 891Q403 891 403 553Q403 385 456.5 302Q510 219 623 219ZM1137 -2Q1137 -243 996.5 -367.5Q856 -492 578 -492Q333 -492 160 -426L160 -182Q363 -268 596 -268Q831 -268 831 -14L831 8L840 145L831 145Q724 -20 514 -20Q313 -20 202.5 135Q92 290 92 557Q92 832 206.5 985.5Q321 1139 522 1139Q728 1139 846 975L854 975L879 1118L1137 1118Z"/></g><g transform="translate(2775.5 2048) scale (1 -1)"><path d="M784 1139Q846 1139 887 1130L864 844Q827 854 774 854Q628 854 546.5 779Q465 704 465 569L465 0L160 0L160 1118L391 1118L436 930L451 930Q503 1024 591.5 1081.5Q680 1139 784 1139Z"/></g><g transform="translate(3705.5 2048) scale (1 -1)"><path d="M147 1407Q147 1556 313 1556Q479 1556 479 1407Q479 1336 437.5 1296.5Q396 1257 313 1257Q147 1257 147 1407ZM465 0L160 0L160 1118L465 1118Z"/></g><g transform="translate(4330.5 2048) scale (1 -1)"><path d="M614 -20Q92 -20 92 553Q92 838 234 988.5Q376 1139 641 1139Q835 1139 989 1063L899 827Q827 856 765 874.5Q703 893 641 893Q403 893 403 555Q403 227 641 227Q729 227 804 250.5Q879 274 954 324L954 63Q880 16 804.5 -2Q729 -20 614 -20Z"/></g><g transform="translate(5383.5 2048) scale (1 -1)"><path d="M952 0L911 143L895 143Q846 65 756 22.5Q666 -20 551 -20Q354 -20 254 85.5Q154 191 154 389L154 1118L459 1118L459 465Q459 344 502 283.5Q545 223 639 223Q767 223 824 308.5Q881 394 881 592L881 1118L1186 1118L1186 0Z"/></g><g transform="translate(6729.5 2048) scale (1 -1)"><path d="M465 0L160 0L160 1556L465 1556Z"/></g><g transform="translate(7354.5 2048) scale (1 -1)"><path d="M631 223Q711 223 823 258L823 31Q709 -20 543 -20Q360 -20 276.5 72.5Q193 165 193 350L193 889L47 889L47 1018L215 1120L303 1356L498 1356L498 1118L811 1118L811 889L498 889L498 350Q498 285 534.5 254Q571 223 631 223Z"/></g><g transform="translate(8243.5 2048) scale (1 -1)"><path d="M952 0L911 143L895 143Q846 65 756 22.5Q666 -20 551 -20Q354 -20 254 85.5Q154 191 154 389L154 1118L459 1118L459 465Q459 344 502 283.5Q545 223 639 223Q767 223 824 308.5Q881 394 881 592L881 1118L1186 1118L1186 0Z"/></g><g transform="translate(9589.5 2048) scale (1 -1)"><path d="M784 1139Q846 1139 887 1130L864 844Q827 854 774 854Q628 854 546.5 779Q465 704 465 569L465 0L160 0L160 1118L391 1118L436 930L451 930Q503 1024 591.5 1081.5Q680 1139 784 1139Z"/></g><g transform="translate(10519.5 2048) scale (1 -1)"><path d="M623 922Q526 922 471 860.5Q416 799 408 686L836 686Q834 799 777 860.5Q720 922 623 922ZM666 -20Q396 -20 244 129Q92 278 92 551Q92 832 232.5 985.5Q373 1139 621 1139Q858 1139 990 1004Q1122 869 1122 631L1122 483L401 483Q406 353 478 280Q550 207 680 207Q781 207 871 228Q961 249 1059 295L1059 59Q979 19 888 -0.5Q797 -20 666 -20Z"/></g></g></g><g transform="translate(-196,-177)"><rect x="0" y="0" width="34" height="30" border="1" rx="10" ry="10" style="fill:#E0E0E0;stroke:#707070;stroke-width:1px;"/><g transform="translate (6 6) scale(0.005859375)" style="fill:#4F4F4F;"><g transform="translate(54.33333333333326 2048) scale (1 -1)"><path d="M1047 406Q1047 208 904.5 94Q762 -20 508 -20Q274 -20 94 68L94 356Q242 290 344.5 263Q447 236 532 236Q634 236 688.5 275Q743 314 743 391Q743 434 719 467.5Q695 501 648.5 532Q602 563 459 631Q325 694 258 752Q191 810 151 887Q111 964 111 1067Q111 1261 242.5 1372Q374 1483 606 1483Q720 1483 823.5 1456Q927 1429 1040 1380L940 1139Q823 1187 746.5 1206Q670 1225 596 1225Q508 1225 461 1184Q414 1143 414 1077Q414 1036 433 1005.5Q452 975 493.5 946.5Q535 918 690 844Q895 746 971 647.5Q1047 549 1047 406Z"/></g><g transform="translate(1182.3333333333333 2048) scale (1 -1)"><path d="M403 561Q403 395 457.5 310Q512 225 635 225Q757 225 810.5 309.5Q864 394 864 561Q864 727 810 810Q756 893 633 893Q511 893 457 810.5Q403 728 403 561ZM1176 561Q1176 288 1032 134Q888 -20 631 -20Q470 -20 347 50.5Q224 121 158 253Q92 385 92 561Q92 835 235 987Q378 1139 637 1139Q798 1139 921 1069Q1044 999 1110 868Q1176 737 1176 561Z"/></g><g transform="translate(2450.333333333333 2048) scale (1 -1)"><path d="M147 1407Q147 1556 313 1556Q479 1556 479 1407Q479 1336 437.5 1296.5Q396 1257 313 1257Q147 1257 147 1407ZM465 0L160 0L160 1118L465 1118Z"/></g><g transform="translate(3075.333333333333 2048) scale (1 -1)"><path d="M465 0L160 0L160 1556L465 1556Z"/></g></g></g><g transform="translate(-196,-127)"><rect x="0" y="0" width="123" height="30" border="1" rx="10" ry="10" style="fill:#E0E0E0;stroke:#707070;stroke-width:1px;"/><g transform="translate (6 6) scale(0.005859375)" style="fill:#4F4F4F;"><g transform="translate(70.5 2048) scale (1 -1)"><path d="M489 0L184 0L184 1462L1022 1462L1022 1208L489 1208L489 831L985 831L985 578L489 578Z"/></g><g transform="translate(1194.5 2048) scale (1 -1)"><path d="M784 1139Q846 1139 887 1130L864 844Q827 854 774 854Q628 854 546.5 779Q465 704 465 569L465 0L160 0L160 1118L391 1118L436 930L451 930Q503 1024 591.5 1081.5Q680 1139 784 1139Z"/></g><g transform="translate(2124.5 2048) scale (1 -1)"><path d="M147 1407Q147 1556 313 1556Q479 1556 479 1407Q479 1336 437.5 1296.5Q396 1257 313 1257Q147 1257 147 1407ZM465 0L160 0L160 1118L465 1118Z"/></g><g transform="translate(2749.5 2048) scale (1 -1)"><path d="M623 922Q526 922 471 860.5Q416 799 408 686L836 686Q834 799 777 860.5Q720 922 623 922ZM666 -20Q396 -20 244 129Q92 278 92 551Q92 832 232.5 985.5Q373 1139 621 1139Q858 1139 990 1004Q1122 869 1122 631L1122 483L401 483Q406 353 478 280Q550 207 680 207Q781 207 871 228Q961 249 1059 295L1059 59Q979 19 888 -0.5Q797 -20 666 -20Z"/></g><g transform="translate(3959.5 2048) scale (1 -1)"><path d="M1192 0L887 0L887 653Q887 774 844 834.5Q801 895 707 895Q579 895 522 809.5Q465 724 465 526L465 0L160 0L160 1118L393 1118L434 975L451 975Q502 1056 591.5 1097.5Q681 1139 795 1139Q990 1139 1091 1033.5Q1192 928 1192 729Z"/></g><g transform="translate(5305.5 2048) scale (1 -1)"><path d="M514 -20Q317 -20 204.5 133Q92 286 92 557Q92 832 206.5 985.5Q321 1139 522 1139Q733 1139 844 975L854 975Q831 1100 831 1198L831 1556L1137 1556L1137 0L903 0L844 145L831 145Q727 -20 514 -20ZM621 223Q738 223 792.5 291Q847 359 852 522L852 555Q852 735 796.5 813Q741 891 616 891Q514 891 457.5 804.5Q401 718 401 553Q401 388 458 305.5Q515 223 621 223Z"/></g><g transform="translate(6601.5 2048) scale (1 -1)"><path d="M940 332Q940 160 820.5 70Q701 -20 463 -20Q341 -20 255 -3.5Q169 13 94 45L94 297Q179 257 285.5 230Q392 203 473 203Q639 203 639 299Q639 335 617 357.5Q595 380 541 408.5Q487 437 397 475Q268 529 207.5 575Q147 621 119.5 680.5Q92 740 92 827Q92 976 207.5 1057.5Q323 1139 535 1139Q737 1139 928 1051L836 831Q752 867 679 890Q606 913 530 913Q395 913 395 840Q395 799 438.5 769Q482 739 629 680Q760 627 821 581Q882 535 911 475Q940 415 940 332Z"/></g><g transform="translate(8151.5 2048) scale (1 -1)"><path d="M403 561Q403 395 457.5 310Q512 225 635 225Q757 225 810.5 309.5Q864 394 864 561Q864 727 810 810Q756 893 633 893Q511 893 457 810.5Q403 728 403 561ZM1176 561Q1176 288 1032 134Q888 -20 631 -20Q470 -20 347 50.5Q224 121 158 253Q92 385 92 561Q92 835 235 987Q378 1139 637 1139Q798 1139 921 1069Q1044 999 1110 868Q1176 737 1176 561Z"/></g><g transform="translate(9419.5 2048) scale (1 -1)"><path d="M778 889L514 889L514 0L209 0L209 889L41 889L41 1036L209 1118L209 1200Q209 1391 303 1479Q397 1567 604 1567Q762 1567 885 1520L807 1296Q715 1325 637 1325Q572 1325 543 1286.5Q514 1248 514 1188L514 1118L778 1118Z"/></g><g transform="translate(10744.5 2048) scale (1 -1)"><path d="M778 889L514 889L514 0L209 0L209 889L41 889L41 1036L209 1118L209 1200Q209 1391 303 1479Q397 1567 604 1567Q762 1567 885 1520L807 1296Q715 1325 637 1325Q572 1325 543 1286.5Q514 1248 514 1188L514 1118L778 1118Z"/></g><g transform="translate(11537.5 2048) scale (1 -1)"><path d="M870 0L811 152L803 152Q726 55 644.5 17.5Q563 -20 432 -20Q271 -20 178.5 72Q86 164 86 334Q86 512 210.5 596.5Q335 681 586 690L780 696L780 745Q780 915 606 915Q472 915 291 834L190 1040Q383 1141 618 1141Q843 1141 963 1043Q1083 945 1083 745L1083 0ZM780 518L662 514Q529 510 464 466Q399 422 399 332Q399 203 547 203Q653 203 716.5 264Q780 325 780 426Z"/></g><g transform="translate(12774.5 2048) scale (1 -1)"><path d="M784 1139Q846 1139 887 1130L864 844Q827 854 774 854Q628 854 546.5 779Q465 704 465 569L465 0L160 0L160 1118L391 1118L436 930L451 930Q503 1024 591.5 1081.5Q680 1139 784 1139Z"/></g><g transform="translate(13704.5 2048) scale (1 -1)"><path d="M1161 0L856 0L856 653Q856 774 815.5 834.5Q775 895 688 895Q571 895 518 809Q465 723 465 526L465 0L160 0L160 1118L393 1118L434 975L451 975Q496 1052 581 1095.5Q666 1139 776 1139Q1027 1139 1116 975L1143 975Q1188 1053 1275.5 1096Q1363 1139 1473 1139Q1663 1139 1760.5 1041.5Q1858 944 1858 729L1858 0L1552 0L1552 653Q1552 774 1511.5 834.5Q1471 895 1384 895Q1272 895 1216.5 815Q1161 735 1161 561Z"/></g><g transform="translate(15715.5 2048) scale (1 -1)"><path d="M623 922Q526 922 471 860.5Q416 799 408 686L836 686Q834 799 777 860.5Q720 922 623 922ZM666 -20Q396 -20 244 129Q92 278 92 551Q92 832 232.5 985.5Q373 1139 621 1139Q858 1139 990 1004Q1122 869 1122 631L1122 483L401 483Q406 353 478 280Q550 207 680 207Q781 207 871 228Q961 249 1059 295L1059 59Q979 19 888 -0.5Q797 -20 666 -20Z"/></g><g transform="translate(16925.5 2048) scale (1 -1)"><path d="M784 1139Q846 1139 887 1130L864 844Q827 854 774 854Q628 854 546.5 779Q465 704 465 569L465 0L160 0L160 1118L391 1118L436 930L451 930Q503 1024 591.5 1081.5Q680 1139 784 1139Z"/></g><g transform="translate(17855.5 2048) scale (1 -1)"><path d="M940 332Q940 160 820.5 70Q701 -20 463 -20Q341 -20 255 -3.5Q169 13 94 45L94 297Q179 257 285.5 230Q392 203 473 203Q639 203 639 299Q639 335 617 357.5Q595 380 541 408.5Q487 437 397 475Q268 529 207.5 575Q147 621 119.5 680.5Q92 740 92 827Q92 976 207.5 1057.5Q323 1139 535 1139Q737 1139 928 1051L836 831Q752 867 679 890Q606 913 530 913Q395 913 395 840Q395 799 438.5 769Q482 739 629 680Q760 627 821 581Q882 535 911 475Q940 415 940 332Z"/></g></g></g><g transform="translate(-566,-14)"><rect x="0" y="0" width="55" height="30" border="1" rx="10" ry="10" style="fill:#22AAE0;stroke:#707070;stroke-width:1px;"/><g transform="translate (6 6) scale(0.005859375)" style="fill:#4F4F4F;"><g transform="translate(57.833333333333485 2048) scale (1 -1)"><path d="M774 -20Q577 -20 465 123L449 123Q465 -17 465 -39L465 -492L160 -492L160 1118L408 1118L451 973L465 973Q572 1139 782 1139Q980 1139 1092 986Q1204 833 1204 561Q1204 382 1151.5 250Q1099 118 1002 49Q905 -20 774 -20ZM684 895Q571 895 519 825.5Q467 756 465 596L465 563Q465 383 518.5 305Q572 227 688 227Q893 227 893 565Q893 730 842.5 812.5Q792 895 684 895Z"/></g><g transform="translate(1353.8333333333335 2048) scale (1 -1)"><path d="M465 0L160 0L160 1556L465 1556Z"/></g><g transform="translate(1978.8333333333335 2048) scale (1 -1)"><path d="M870 0L811 152L803 152Q726 55 644.5 17.5Q563 -20 432 -20Q271 -20 178.5 72Q86 164 86 334Q86 512 210.5 596.5Q335 681 586 690L780 696L780 745Q780 915 606 915Q472 915 291 834L190 1040Q383 1141 618 1141Q843 1141 963 1043Q1083 945 1083 745L1083 0ZM780 518L662 514Q529 510 464 466Q399 422 399 332Q399 203 547 203Q653 203 716.5 264Q780 325 780 426Z"/></g><g transform="translate(3215.8333333333335 2048) scale (1 -1)"><path d="M1192 0L887 0L887 653Q887 774 844 834.5Q801 895 707 895Q579 895 522 809.5Q465 724 465 526L465 0L160 0L160 1118L393 1118L434 975L451 975Q502 1056 591.5 1097.5Q681 1139 795 1139Q990 1139 1091 1033.5Q1192 928 1192 729Z"/></g><g transform="translate(4561.833333333334 2048) scale (1 -1)"><path d="M631 223Q711 223 823 258L823 31Q709 -20 543 -20Q360 -20 276.5 72.5Q193 165 193 350L193 889L47 889L47 1018L215 1120L303 1356L498 1356L498 1118L811 1118L811 889L498 889L498 350Q498 285 534.5 254Q571 223 631 223Z"/></g><g transform="translate(5450.833333333334 2048) scale (1 -1)"><path d="M61 424L61 674L598 674L598 424Z"/></g><g transform="translate(6109.833333333334 2048) scale (1 -1)"><path d="M1137 303L961 303L961 0L659 0L659 303L35 303L35 518L676 1462L961 1462L961 543L1137 543ZM659 543L659 791Q659 853 664 971Q669 1089 672 1108L664 1108Q627 1026 575 948L307 543Z"/></g></g></g><g transform="translate(-491,-64)"><rect x="0" y="0" width="98" height="30" border="1" rx="10" ry="10" style="fill:#E0E0E0;stroke:#707070;stroke-width:1px;"/><g transform="translate (6 6) scale(0.005859375)" style="fill:#4F4F4F;"><g transform="translate(13.16666666666697 2048) scale (1 -1)"><path d="M494 774L596 774Q739 774 810 830.5Q881 887 881 995Q881 1104 821.5 1156Q762 1208 635 1208L494 1208ZM1194 1006Q1194 770 1046.5 645Q899 520 627 520L494 520L494 0L184 0L184 1462L651 1462Q917 1462 1055.5 1347.5Q1194 1233 1194 1006Z"/></g><g transform="translate(1299.166666666667 2048) scale (1 -1)"><path d="M870 0L811 152L803 152Q726 55 644.5 17.5Q563 -20 432 -20Q271 -20 178.5 72Q86 164 86 334Q86 512 210.5 596.5Q335 681 586 690L780 696L780 745Q780 915 606 915Q472 915 291 834L190 1040Q383 1141 618 1141Q843 1141 963 1043Q1083 945 1083 745L1083 0ZM780 518L662 514Q529 510 464 466Q399 422 399 332Q399 203 547 203Q653 203 716.5 264Q780 325 780 426Z"/></g><g transform="translate(2536.166666666667 2048) scale (1 -1)"><path d="M784 1139Q846 1139 887 1130L864 844Q827 854 774 854Q628 854 546.5 779Q465 704 465 569L465 0L160 0L160 1118L391 1118L436 930L451 930Q503 1024 591.5 1081.5Q680 1139 784 1139Z"/></g><g transform="translate(3466.166666666667 2048) scale (1 -1)"><path d="M631 223Q711 223 823 258L823 31Q709 -20 543 -20Q360 -20 276.5 72.5Q193 165 193 350L193 889L47 889L47 1018L215 1120L303 1356L498 1356L498 1118L811 1118L811 889L498 889L498 350Q498 285 534.5 254Q571 223 631 223Z"/></g><g transform="translate(4355.166666666667 2048) scale (1 -1)"><path d="M940 332Q940 160 820.5 70Q701 -20 463 -20Q341 -20 255 -3.5Q169 13 94 45L94 297Q179 257 285.5 230Q392 203 473 203Q639 203 639 299Q639 335 617 357.5Q595 380 541 408.5Q487 437 397 475Q268 529 207.5 575Q147 621 119.5 680.5Q92 740 92 827Q92 976 207.5 1057.5Q323 1139 535 1139Q737 1139 928 1051L836 831Q752 867 679 890Q606 913 530 913Q395 913 395 840Q395 799 438.5 769Q482 739 629 680Q760 627 821 581Q882 535 911 475Q940 415 940 332Z"/></g><g transform="translate(5905.166666666667 2048) scale (1 -1)"><path d="M403 561Q403 395 457.5 310Q512 225 635 225Q757 225 810.5 309.5Q864 394 864 561Q864 727 810 810Q756 893 633 893Q511 893 457 810.5Q403 728 403 561ZM1176 561Q1176 288 1032 134Q888 -20 631 -20Q470 -20 347 50.5Q224 121 158 253Q92 385 92 561Q92 835 235 987Q378 1139 637 1139Q798 1139 921 1069Q1044 999 1110 868Q1176 737 1176 561Z"/></g><g transform="translate(7173.166666666667 2048) scale (1 -1)"><path d="M778 889L514 889L514 0L209 0L209 889L41 889L41 1036L209 1118L209 1200Q209 1391 303 1479Q397 1567 604 1567Q762 1567 885 1520L807 1296Q715 1325 637 1325Q572 1325 543 1286.5Q514 1248 514 1188L514 1118L778 1118Z"/></g><g transform="translate(8498.166666666668 2048) scale (1 -1)"><path d="M870 0L811 152L803 152Q726 55 644.5 17.5Q563 -20 432 -20Q271 -20 178.5 72Q86 164 86 334Q86 512 210.5 596.5Q335 681 586 690L780 696L780 745Q780 915 606 915Q472 915 291 834L190 1040Q383 1141 618 1141Q843 1141 963 1043Q1083 945 1083 745L1083 0ZM780 518L662 514Q529 510 464 466Q399 422 399 332Q399 203 547 203Q653 203 716.5 264Q780 325 780 426Z"/></g><g transform="translate(10267.166666666668 2048) scale (1 -1)"><path d="M184 0L184 1462L494 1462L494 256L1087 256L1087 0Z"/></g><g transform="translate(11424.166666666668 2048) scale (1 -1)"><path d="M623 922Q526 922 471 860.5Q416 799 408 686L836 686Q834 799 777 860.5Q720 922 623 922ZM666 -20Q396 -20 244 129Q92 278 92 551Q92 832 232.5 985.5Q373 1139 621 1139Q858 1139 990 1004Q1122 869 1122 631L1122 483L401 483Q406 353 478 280Q550 207 680 207Q781 207 871 228Q961 249 1059 295L1059 59Q979 19 888 -0.5Q797 -20 666 -20Z"/></g><g transform="translate(12634.166666666668 2048) scale (1 -1)"><path d="M870 0L811 152L803 152Q726 55 644.5 17.5Q563 -20 432 -20Q271 -20 178.5 72Q86 164 86 334Q86 512 210.5 596.5Q335 681 586 690L780 696L780 745Q780 915 606 915Q472 915 291 834L190 1040Q383 1141 618 1141Q843 1141 963 1043Q1083 945 1083 745L1083 0ZM780 518L662 514Q529 510 464 466Q399 422 399 332Q399 203 547 203Q653 203 716.5 264Q780 325 780 426Z"/></g><g transform="translate(13871.166666666668 2048) scale (1 -1)"><path d="M778 889L514 889L514 0L209 0L209 889L41 889L41 1036L209 1118L209 1200Q209 1391 303 1479Q397 1567 604 1567Q762 1567 885 1520L807 1296Q715 1325 637 1325Q572 1325 543 1286.5Q514 1248 514 1188L514 1118L778 1118Z"/></g></g></g><g transform="translate(-373,-64)"><rect x="0" y="0" width="90" height="30" border="1" rx="10" ry="10" style="fill:#E0E0E0;stroke:#707070;stroke-width:1px;"/><g transform="translate (6 6) scale(0.005859375)" style="fill:#4F4F4F;"><g transform="translate(79 2048) scale (1 -1)"><path d="M489 0L184 0L184 1462L1022 1462L1022 1208L489 1208L489 831L985 831L985 578L489 578Z"/></g><g transform="translate(1203 2048) scale (1 -1)"><path d="M403 561Q403 395 457.5 310Q512 225 635 225Q757 225 810.5 309.5Q864 394 864 561Q864 727 810 810Q756 893 633 893Q511 893 457 810.5Q403 728 403 561ZM1176 561Q1176 288 1032 134Q888 -20 631 -20Q470 -20 347 50.5Q224 121 158 253Q92 385 92 561Q92 835 235 987Q378 1139 637 1139Q798 1139 921 1069Q1044 999 1110 868Q1176 737 1176 561Z"/></g><g transform="translate(2471 2048) scale (1 -1)"><path d="M403 561Q403 395 457.5 310Q512 225 635 225Q757 225 810.5 309.5Q864 394 864 561Q864 727 810 810Q756 893 633 893Q511 893 457 810.5Q403 728 403 561ZM1176 561Q1176 288 1032 134Q888 -20 631 -20Q470 -20 347 50.5Q224 121 158 253Q92 385 92 561Q92 835 235 987Q378 1139 637 1139Q798 1139 921 1069Q1044 999 1110 868Q1176 737 1176 561Z"/></g><g transform="translate(3739 2048) scale (1 -1)"><path d="M514 -20Q317 -20 204.5 133Q92 286 92 557Q92 832 206.5 985.5Q321 1139 522 1139Q733 1139 844 975L854 975Q831 1100 831 1198L831 1556L1137 1556L1137 0L903 0L844 145L831 145Q727 -20 514 -20ZM621 223Q738 223 792.5 291Q847 359 852 522L852 555Q852 735 796.5 813Q741 891 616 891Q514 891 457.5 804.5Q401 718 401 553Q401 388 458 305.5Q515 223 621 223Z"/></g><g transform="translate(5567 2048) scale (1 -1)"><path d="M489 0L184 0L184 1462L1022 1462L1022 1208L489 1208L489 831L985 831L985 578L489 578Z"/></g><g transform="translate(6691 2048) scale (1 -1)"><path d="M870 0L811 152L803 152Q726 55 644.5 17.5Q563 -20 432 -20Q271 -20 178.5 72Q86 164 86 334Q86 512 210.5 596.5Q335 681 586 690L780 696L780 745Q780 915 606 915Q472 915 291 834L190 1040Q383 1141 618 1141Q843 1141 963 1043Q1083 945 1083 745L1083 0ZM780 518L662 514Q529 510 464 466Q399 422 399 332Q399 203 547 203Q653 203 716.5 264Q780 325 780 426Z"/></g><g transform="translate(7928 2048) scale (1 -1)"><path d="M614 -20Q92 -20 92 553Q92 838 234 988.5Q376 1139 641 1139Q835 1139 989 1063L899 827Q827 856 765 874.5Q703 893 641 893Q403 893 403 555Q403 227 641 227Q729 227 804 250.5Q879 274 954 324L954 63Q880 16 804.5 -2Q729 -20 614 -20Z"/></g><g transform="translate(8981 2048) scale (1 -1)"><path d="M631 223Q711 223 823 258L823 31Q709 -20 543 -20Q360 -20 276.5 72.5Q193 165 193 350L193 889L47 889L47 1018L215 1120L303 1356L498 1356L498 1118L811 1118L811 889L498 889L498 350Q498 285 534.5 254Q571 223 631 223Z"/></g><g transform="translate(9870 2048) scale (1 -1)"><path d="M403 561Q403 395 457.5 310Q512 225 635 225Q757 225 810.5 309.5Q864 394 864 561Q864 727 810 810Q756 893 633 893Q511 893 457 810.5Q403 728 403 561ZM1176 561Q1176 288 1032 134Q888 -20 631 -20Q470 -20 347 50.5Q224 121 158 253Q92 385 92 561Q92 835 235 987Q378 1139 637 1139Q798 1139 921 1069Q1044 999 1110 868Q1176 737 1176 561Z"/></g><g transform="translate(11138 2048) scale (1 -1)"><path d="M784 1139Q846 1139 887 1130L864 844Q827 854 774 854Q628 854 546.5 779Q465 704 465 569L465 0L160 0L160 1118L391 1118L436 930L451 930Q503 1024 591.5 1081.5Q680 1139 784 1139Z"/></g><g transform="translate(12068 2048) scale (1 -1)"><path d="M0 1118L334 1118L545 489Q572 407 582 295L588 295Q599 398 631 489L838 1118L1165 1118L692 -143Q627 -318 506.5 -405Q386 -492 225 -492Q146 -492 70 -475L70 -233Q125 -246 190 -246Q271 -246 331.5 -196.5Q392 -147 426 -47L444 8Z"/></g></g></g><g transform="translate(-720,-23)"><rect x="0" y="0" width="133" height="48" border="1" rx="10" ry="10" style="fill:#E0E0E0;stroke:#707070;stroke-width:1px;"/><g transform="translate (6 6) scale(0.005859375)" style="fill:#4F4F4F;"><g transform="translate(2197.333333333334 2048) scale (1 -1)"><path d="M805 1225Q630 1225 534 1093.5Q438 962 438 727Q438 238 805 238Q959 238 1178 315L1178 55Q998 -20 776 -20Q457 -20 288 173.5Q119 367 119 729Q119 957 202 1128.5Q285 1300 440.5 1391.5Q596 1483 805 1483Q1018 1483 1233 1380L1133 1128Q1051 1167 968 1196Q885 1225 805 1225Z"/></g><g transform="translate(3502.333333333334 2048) scale (1 -1)"><path d="M465 0L160 0L160 1556L465 1556Z"/></g><g transform="translate(4127.333333333334 2048) scale (1 -1)"><path d="M870 0L811 152L803 152Q726 55 644.5 17.5Q563 -20 432 -20Q271 -20 178.5 72Q86 164 86 334Q86 512 210.5 596.5Q335 681 586 690L780 696L780 745Q780 915 606 915Q472 915 291 834L190 1040Q383 1141 618 1141Q843 1141 963 1043Q1083 945 1083 745L1083 0ZM780 518L662 514Q529 510 464 466Q399 422 399 332Q399 203 547 203Q653 203 716.5 264Q780 325 780 426Z"/></g><g transform="translate(5364.333333333334 2048) scale (1 -1)"><path d="M940 332Q940 160 820.5 70Q701 -20 463 -20Q341 -20 255 -3.5Q169 13 94 45L94 297Q179 257 285.5 230Q392 203 473 203Q639 203 639 299Q639 335 617 357.5Q595 380 541 408.5Q487 437 397 475Q268 529 207.5 575Q147 621 119.5 680.5Q92 740 92 827Q92 976 207.5 1057.5Q323 1139 535 1139Q737 1139 928 1051L836 831Q752 867 679 890Q606 913 530 913Q395 913 395 840Q395 799 438.5 769Q482 739 629 680Q760 627 821 581Q882 535 911 475Q940 415 940 332Z"/></g><g transform="translate(6382.333333333334 2048) scale (1 -1)"><path d="M940 332Q940 160 820.5 70Q701 -20 463 -20Q341 -20 255 -3.5Q169 13 94 45L94 297Q179 257 285.5 230Q392 203 473 203Q639 203 639 299Q639 335 617 357.5Q595 380 541 408.5Q487 437 397 475Q268 529 207.5 575Q147 621 119.5 680.5Q92 740 92 827Q92 976 207.5 1057.5Q323 1139 535 1139Q737 1139 928 1051L836 831Q752 867 679 890Q606 913 530 913Q395 913 395 840Q395 799 438.5 769Q482 739 629 680Q760 627 821 581Q882 535 911 475Q940 415 940 332Z"/></g><g transform="translate(7400.333333333334 2048) scale (1 -1)"><path d="M147 1407Q147 1556 313 1556Q479 1556 479 1407Q479 1336 437.5 1296.5Q396 1257 313 1257Q147 1257 147 1407ZM465 0L160 0L160 1118L465 1118Z"/></g><g transform="translate(8025.333333333334 2048) scale (1 -1)"><path d="M778 889L514 889L514 0L209 0L209 889L41 889L41 1036L209 1118L209 1200Q209 1391 303 1479Q397 1567 604 1567Q762 1567 885 1520L807 1296Q715 1325 637 1325Q572 1325 543 1286.5Q514 1248 514 1188L514 1118L778 1118ZM940 1407Q940 1556 1106 1556Q1272 1556 1272 1407Q1272 1336 1230.5 1296.5Q1189 1257 1106 1257Q940 1257 940 1407ZM1258 0L953 0L953 1118L1258 1118Z"/></g><g transform="translate(9442.333333333334 2048) scale (1 -1)"><path d="M614 -20Q92 -20 92 553Q92 838 234 988.5Q376 1139 641 1139Q835 1139 989 1063L899 827Q827 856 765 874.5Q703 893 641 893Q403 893 403 555Q403 227 641 227Q729 227 804 250.5Q879 274 954 324L954 63Q880 16 804.5 -2Q729 -20 614 -20Z"/></g><g transform="translate(10495.333333333334 2048) scale (1 -1)"><path d="M870 0L811 152L803 152Q726 55 644.5 17.5Q563 -20 432 -20Q271 -20 178.5 72Q86 164 86 334Q86 512 210.5 596.5Q335 681 586 690L780 696L780 745Q780 915 606 915Q472 915 291 834L190 1040Q383 1141 618 1141Q843 1141 963 1043Q1083 945 1083 745L1083 0ZM780 518L662 514Q529 510 464 466Q399 422 399 332Q399 203 547 203Q653 203 716.5 264Q780 325 780 426Z"/></g><g transform="translate(11732.333333333334 2048) scale (1 -1)"><path d="M631 223Q711 223 823 258L823 31Q709 -20 543 -20Q360 -20 276.5 72.5Q193 165 193 350L193 889L47 889L47 1018L215 1120L303 1356L498 1356L498 1118L811 1118L811 889L498 889L498 350Q498 285 534.5 254Q571 223 631 223Z"/></g><g transform="translate(12621.333333333334 2048) scale (1 -1)"><path d="M147 1407Q147 1556 313 1556Q479 1556 479 1407Q479 1336 437.5 1296.5Q396 1257 313 1257Q147 1257 147 1407ZM465 0L160 0L160 1118L465 1118Z"/></g><g transform="translate(13246.333333333334 2048) scale (1 -1)"><path d="M403 561Q403 395 457.5 310Q512 225 635 225Q757 225 810.5 309.5Q864 394 864 561Q864 727 810 810Q756 893 633 893Q511 893 457 810.5Q403 728 403 561ZM1176 561Q1176 288 1032 134Q888 -20 631 -20Q470 -20 347 50.5Q224 121 158 253Q92 385 92 561Q92 835 235 987Q378 1139 637 1139Q798 1139 921 1069Q1044 999 1110 868Q1176 737 1176 561Z"/></g><g transform="translate(14514.333333333334 2048) scale (1 -1)"><path d="M1192 0L887 0L887 653Q887 774 844 834.5Q801 895 707 895Q579 895 522 809.5Q465 724 465 526L465 0L160 0L160 1118L393 1118L434 975L451 975Q502 1056 591.5 1097.5Q681 1139 795 1139Q990 1139 1091 1033.5Q1192 928 1192 729Z"/></g><g transform="translate(16392.333333333336 2048) scale (1 -1)"><path d="M403 561Q403 395 457.5 310Q512 225 635 225Q757 225 810.5 309.5Q864 394 864 561Q864 727 810 810Q756 893 633 893Q511 893 457 810.5Q403 728 403 561ZM1176 561Q1176 288 1032 134Q888 -20 631 -20Q470 -20 347 50.5Q224 121 158 253Q92 385 92 561Q92 835 235 987Q378 1139 637 1139Q798 1139 921 1069Q1044 999 1110 868Q1176 737 1176 561Z"/></g><g transform="translate(17660.333333333336 2048) scale (1 -1)"><path d="M778 889L514 889L514 0L209 0L209 889L41 889L41 1036L209 1118L209 1200Q209 1391 303 1479Q397 1567 604 1567Q762 1567 885 1520L807 1296Q715 1325 637 1325Q572 1325 543 1286.5Q514 1248 514 1188L514 1118L778 1118Z"/></g><g transform="translate(7124.833333333334 5120) scale (1 -1)"><path d="M494 774L596 774Q739 774 810 830.5Q881 887 881 995Q881 1104 821.5 1156Q762 1208 635 1208L494 1208ZM1194 1006Q1194 770 1046.5 645Q899 520 627 520L494 520L494 0L184 0L184 1462L651 1462Q917 1462 1055.5 1347.5Q1194 1233 1194 1006Z"/></g><g transform="translate(8410.833333333334 5120) scale (1 -1)"><path d="M465 0L160 0L160 1556L465 1556Z"/></g><g transform="translate(9035.833333333334 5120) scale (1 -1)"><path d="M870 0L811 152L803 152Q726 55 644.5 17.5Q563 -20 432 -20Q271 -20 178.5 72Q86 164 86 334Q86 512 210.5 596.5Q335 681 586 690L780 696L780 745Q780 915 606 915Q472 915 291 834L190 1040Q383 1141 618 1141Q843 1141 963 1043Q1083 945 1083 745L1083 0ZM780 518L662 514Q529 510 464 466Q399 422 399 332Q399 203 547 203Q653 203 716.5 264Q780 325 780 426Z"/></g><g transform="translate(10272.833333333334 5120) scale (1 -1)"><path d="M1192 0L887 0L887 653Q887 774 844 834.5Q801 895 707 895Q579 895 522 809.5Q465 724 465 526L465 0L160 0L160 1118L393 1118L434 975L451 975Q502 1056 591.5 1097.5Q681 1139 795 1139Q990 1139 1091 1033.5Q1192 928 1192 729Z"/></g><g transform="translate(11618.833333333334 5120) scale (1 -1)"><path d="M631 223Q711 223 823 258L823 31Q709 -20 543 -20Q360 -20 276.5 72.5Q193 165 193 350L193 889L47 889L47 1018L215 1120L303 1356L498 1356L498 1118L811 1118L811 889L498 889L498 350Q498 285 534.5 254Q571 223 631 223Z"/></g><g transform="translate(12507.833333333334 5120) scale (1 -1)"><path d="M940 332Q940 160 820.5 70Q701 -20 463 -20Q341 -20 255 -3.5Q169 13 94 45L94 297Q179 257 285.5 230Q392 203 473 203Q639 203 639 299Q639 335 617 357.5Q595 380 541 408.5Q487 437 397 475Q268 529 207.5 575Q147 621 119.5 680.5Q92 740 92 827Q92 976 207.5 1057.5Q323 1139 535 1139Q737 1139 928 1051L836 831Q752 867 679 890Q606 913 530 913Q395 913 395 840Q395 799 438.5 769Q482 739 629 680Q760 627 821 581Q882 535 911 475Q940 415 940 332Z"/></g></g></g><g transform="translate(-898,-48)"><rect x="0" y="0" width="158" height="48" border="1" rx="10" ry="10" style="fill:#E0E0E0;stroke:#707070;stroke-width:1px;"/><g transform="translate (6 6) scale(0.005859375)" style="fill:#4F4F4F;"><g transform="translate(3770.666666666666 2048) scale (1 -1)"><path d="M489 0L184 0L184 1462L1022 1462L1022 1208L489 1208L489 831L985 831L985 578L489 578Z"/></g><g transform="translate(4894.666666666666 2048) scale (1 -1)"><path d="M465 0L160 0L160 1556L465 1556Z"/></g><g transform="translate(5519.666666666666 2048) scale (1 -1)"><path d="M403 561Q403 395 457.5 310Q512 225 635 225Q757 225 810.5 309.5Q864 394 864 561Q864 727 810 810Q756 893 633 893Q511 893 457 810.5Q403 728 403 561ZM1176 561Q1176 288 1032 134Q888 -20 631 -20Q470 -20 347 50.5Q224 121 158 253Q92 385 92 561Q92 835 235 987Q378 1139 637 1139Q798 1139 921 1069Q1044 999 1110 868Q1176 737 1176 561Z"/></g><g transform="translate(6787.666666666666 2048) scale (1 -1)"><path d="M1079 0L993 391L879 885L870 885L666 0L338 0L20 1118L324 1118L453 623Q475 535 514 256L522 256Q526 332 557 497L573 582L711 1118L1047 1118L1178 582Q1190 527 1207.5 420.5Q1225 314 1227 256L1235 256Q1246 345 1266 458.5Q1286 572 1300 623L1434 1118L1733 1118L1411 0Z"/></g><g transform="translate(8540.666666666666 2048) scale (1 -1)"><path d="M623 922Q526 922 471 860.5Q416 799 408 686L836 686Q834 799 777 860.5Q720 922 623 922ZM666 -20Q396 -20 244 129Q92 278 92 551Q92 832 232.5 985.5Q373 1139 621 1139Q858 1139 990 1004Q1122 869 1122 631L1122 483L401 483Q406 353 478 280Q550 207 680 207Q781 207 871 228Q961 249 1059 295L1059 59Q979 19 888 -0.5Q797 -20 666 -20Z"/></g><g transform="translate(9750.666666666666 2048) scale (1 -1)"><path d="M784 1139Q846 1139 887 1130L864 844Q827 854 774 854Q628 854 546.5 779Q465 704 465 569L465 0L160 0L160 1118L391 1118L436 930L451 930Q503 1024 591.5 1081.5Q680 1139 784 1139Z"/></g><g transform="translate(10680.666666666666 2048) scale (1 -1)"><path d="M147 1407Q147 1556 313 1556Q479 1556 479 1407Q479 1336 437.5 1296.5Q396 1257 313 1257Q147 1257 147 1407ZM465 0L160 0L160 1118L465 1118Z"/></g><g transform="translate(11305.666666666666 2048) scale (1 -1)"><path d="M1192 0L887 0L887 653Q887 774 844 834.5Q801 895 707 895Q579 895 522 809.5Q465 724 465 526L465 0L160 0L160 1118L393 1118L434 975L451 975Q502 1056 591.5 1097.5Q681 1139 795 1139Q990 1139 1091 1033.5Q1192 928 1192 729Z"/></g><g transform="translate(12651.666666666666 2048) scale (1 -1)"><path d="M623 219Q746 219 799 289.5Q852 360 852 518L852 555Q852 734 796.5 812.5Q741 891 618 891Q403 891 403 553Q403 385 456.5 302Q510 219 623 219ZM1137 -2Q1137 -243 996.5 -367.5Q856 -492 578 -492Q333 -492 160 -426L160 -182Q363 -268 596 -268Q831 -268 831 -14L831 8L840 145L831 145Q724 -20 514 -20Q313 -20 202.5 135Q92 290 92 557Q92 832 206.5 985.5Q321 1139 522 1139Q728 1139 846 975L854 975L879 1118L1137 1118Z"/></g><g transform="translate(14479.666666666666 2048) scale (1 -1)"><path d="M1536 0L1159 0L1044 113Q853 -20 612 -20Q368 -20 225 92Q82 204 82 395Q82 532 142.5 628.5Q203 725 350 809Q275 895 241 973.5Q207 1052 207 1145Q207 1297 323.5 1390Q440 1483 635 1483Q821 1483 932.5 1396.5Q1044 1310 1044 1165Q1044 1046 975 947.5Q906 849 752 760L1036 483Q1107 600 1159 784L1477 784Q1441 649 1378 520.5Q1315 392 1235 293ZM403 424Q403 338 467.5 287Q532 236 633 236Q759 236 860 297L528 627Q470 583 436.5 535Q403 487 403 424ZM762 1133Q762 1186 726 1216.5Q690 1247 633 1247Q566 1247 527.5 1215Q489 1183 489 1124Q489 1036 584 930Q670 978 716 1024.5Q762 1071 762 1133Z"/></g><g transform="translate(16547.666666666664 2048) scale (1 -1)"><path d="M1192 0L887 0L887 653Q887 774 844 834.5Q801 895 707 895Q579 895 522 809.5Q465 724 465 526L465 0L160 0L160 1118L393 1118L434 975L451 975Q502 1056 591.5 1097.5Q681 1139 795 1139Q990 1139 1091 1033.5Q1192 928 1192 729Z"/></g><g transform="translate(17893.666666666664 2048) scale (1 -1)"><path d="M403 561Q403 395 457.5 310Q512 225 635 225Q757 225 810.5 309.5Q864 394 864 561Q864 727 810 810Q756 893 633 893Q511 893 457 810.5Q403 728 403 561ZM1176 561Q1176 288 1032 134Q888 -20 631 -20Q470 -20 347 50.5Q224 121 158 253Q92 385 92 561Q92 835 235 987Q378 1139 637 1139Q798 1139 921 1069Q1044 999 1110 868Q1176 737 1176 561Z"/></g><g transform="translate(19161.666666666664 2048) scale (1 -1)"><path d="M1192 0L887 0L887 653Q887 774 844 834.5Q801 895 707 895Q579 895 522 809.5Q465 724 465 526L465 0L160 0L160 1118L393 1118L434 975L451 975Q502 1056 591.5 1097.5Q681 1139 795 1139Q990 1139 1091 1033.5Q1192 928 1192 729Z"/></g><g transform="translate(20507.666666666664 2048) scale (1 -1)"><path d="M61 424L61 674L598 674L598 424Z"/></g><g transform="translate(7546.166666666666 5120) scale (1 -1)"><path d="M778 889L514 889L514 0L209 0L209 889L41 889L41 1036L209 1118L209 1200Q209 1391 303 1479Q397 1567 604 1567Q762 1567 885 1520L807 1296Q715 1325 637 1325Q572 1325 543 1286.5Q514 1248 514 1188L514 1118L778 1118ZM1258 0L953 0L953 1556L1258 1556Z"/></g><g transform="translate(8963.166666666666 5120) scale (1 -1)"><path d="M403 561Q403 395 457.5 310Q512 225 635 225Q757 225 810.5 309.5Q864 394 864 561Q864 727 810 810Q756 893 633 893Q511 893 457 810.5Q403 728 403 561ZM1176 561Q1176 288 1032 134Q888 -20 631 -20Q470 -20 347 50.5Q224 121 158 253Q92 385 92 561Q92 835 235 987Q378 1139 637 1139Q798 1139 921 1069Q1044 999 1110 868Q1176 737 1176 561Z"/></g><g transform="translate(10231.166666666666 5120) scale (1 -1)"><path d="M1079 0L993 391L879 885L870 885L666 0L338 0L20 1118L324 1118L453 623Q475 535 514 256L522 256Q526 332 557 497L573 582L711 1118L1047 1118L1178 582Q1190 527 1207.5 420.5Q1225 314 1227 256L1235 256Q1246 345 1266 458.5Q1286 572 1300 623L1434 1118L1733 1118L1411 0Z"/></g><g transform="translate(11984.166666666666 5120) scale (1 -1)"><path d="M623 922Q526 922 471 860.5Q416 799 408 686L836 686Q834 799 777 860.5Q720 922 623 922ZM666 -20Q396 -20 244 129Q92 278 92 551Q92 832 232.5 985.5Q373 1139 621 1139Q858 1139 990 1004Q1122 869 1122 631L1122 483L401 483Q406 353 478 280Q550 207 680 207Q781 207 871 228Q961 249 1059 295L1059 59Q979 19 888 -0.5Q797 -20 666 -20Z"/></g><g transform="translate(13194.166666666666 5120) scale (1 -1)"><path d="M784 1139Q846 1139 887 1130L864 844Q827 854 774 854Q628 854 546.5 779Q465 704 465 569L465 0L160 0L160 1118L391 1118L436 930L451 930Q503 1024 591.5 1081.5Q680 1139 784 1139Z"/></g><g transform="translate(14124.166666666666 5120) scale (1 -1)"><path d="M147 1407Q147 1556 313 1556Q479 1556 479 1407Q479 1336 437.5 1296.5Q396 1257 313 1257Q147 1257 147 1407ZM465 0L160 0L160 1118L465 1118Z"/></g><g transform="translate(14749.166666666666 5120) scale (1 -1)"><path d="M1192 0L887 0L887 653Q887 774 844 834.5Q801 895 707 895Q579 895 522 809.5Q465 724 465 526L465 0L160 0L160 1118L393 1118L434 975L451 975Q502 1056 591.5 1097.5Q681 1139 795 1139Q990 1139 1091 1033.5Q1192 928 1192 729Z"/></g><g transform="translate(16095.166666666666 5120) scale (1 -1)"><path d="M623 219Q746 219 799 289.5Q852 360 852 518L852 555Q852 734 796.5 812.5Q741 891 618 891Q403 891 403 553Q403 385 456.5 302Q510 219 623 219ZM1137 -2Q1137 -243 996.5 -367.5Q856 -492 578 -492Q333 -492 160 -426L160 -182Q363 -268 596 -268Q831 -268 831 -14L831 8L840 145L831 145Q724 -20 514 -20Q313 -20 202.5 135Q92 290 92 557Q92 832 206.5 985.5Q321 1139 522 1139Q728 1139 846 975L854 975L879 1118L1137 1118Z"/></g></g></g><g transform="translate(-866,20)"><rect x="0" y="0" width="126" height="30" border="1" rx="10" ry="10" style="fill:#E0E0E0;stroke:#707070;stroke-width:1px;"/><g transform="translate (6 6) scale(0.005859375)" style="fill:#4F4F4F;"><g transform="translate(53 2048) scale (1 -1)"><path d="M739 821L1319 821L1319 63Q1178 17 1053.5 -1.5Q929 -20 799 -20Q468 -20 293.5 174.5Q119 369 119 733Q119 1087 321.5 1285Q524 1483 883 1483Q1108 1483 1317 1393L1214 1145Q1054 1225 881 1225Q680 1225 559 1090Q438 955 438 727Q438 489 535.5 363.5Q633 238 819 238Q916 238 1016 258L1016 563L739 563Z"/></g><g transform="translate(1536 2048) scale (1 -1)"><path d="M784 1139Q846 1139 887 1130L864 844Q827 854 774 854Q628 854 546.5 779Q465 704 465 569L465 0L160 0L160 1118L391 1118L436 930L451 930Q503 1024 591.5 1081.5Q680 1139 784 1139Z"/></g><g transform="translate(2466 2048) scale (1 -1)"><path d="M623 922Q526 922 471 860.5Q416 799 408 686L836 686Q834 799 777 860.5Q720 922 623 922ZM666 -20Q396 -20 244 129Q92 278 92 551Q92 832 232.5 985.5Q373 1139 621 1139Q858 1139 990 1004Q1122 869 1122 631L1122 483L401 483Q406 353 478 280Q550 207 680 207Q781 207 871 228Q961 249 1059 295L1059 59Q979 19 888 -0.5Q797 -20 666 -20Z"/></g><g transform="translate(3676 2048) scale (1 -1)"><path d="M623 922Q526 922 471 860.5Q416 799 408 686L836 686Q834 799 777 860.5Q720 922 623 922ZM666 -20Q396 -20 244 129Q92 278 92 551Q92 832 232.5 985.5Q373 1139 621 1139Q858 1139 990 1004Q1122 869 1122 631L1122 483L401 483Q406 353 478 280Q550 207 680 207Q781 207 871 228Q961 249 1059 295L1059 59Q979 19 888 -0.5Q797 -20 666 -20Z"/></g><g transform="translate(4886 2048) scale (1 -1)"><path d="M1192 0L887 0L887 653Q887 774 844 834.5Q801 895 707 895Q579 895 522 809.5Q465 724 465 526L465 0L160 0L160 1118L393 1118L434 975L451 975Q502 1056 591.5 1097.5Q681 1139 795 1139Q990 1139 1091 1033.5Q1192 928 1192 729Z"/></g><g transform="translate(6764 2048) scale (1 -1)"><path d="M1536 0L1159 0L1044 113Q853 -20 612 -20Q368 -20 225 92Q82 204 82 395Q82 532 142.5 628.5Q203 725 350 809Q275 895 241 973.5Q207 1052 207 1145Q207 1297 323.5 1390Q440 1483 635 1483Q821 1483 932.5 1396.5Q1044 1310 1044 1165Q1044 1046 975 947.5Q906 849 752 760L1036 483Q1107 600 1159 784L1477 784Q1441 649 1378 520.5Q1315 392 1235 293ZM403 424Q403 338 467.5 287Q532 236 633 236Q759 236 860 297L528 627Q470 583 436.5 535Q403 487 403 424ZM762 1133Q762 1186 726 1216.5Q690 1247 633 1247Q566 1247 527.5 1215Q489 1183 489 1124Q489 1036 584 930Q670 978 716 1024.5Q762 1071 762 1133Z"/></g><g transform="translate(8832 2048) scale (1 -1)"><path d="M1192 0L887 0L887 653Q887 774 844 834.5Q801 895 707 895Q579 895 522 809.5Q465 724 465 526L465 0L160 0L160 1118L393 1118L434 975L451 975Q502 1056 591.5 1097.5Q681 1139 795 1139Q990 1139 1091 1033.5Q1192 928 1192 729Z"/></g><g transform="translate(10178 2048) scale (1 -1)"><path d="M403 561Q403 395 457.5 310Q512 225 635 225Q757 225 810.5 309.5Q864 394 864 561Q864 727 810 810Q756 893 633 893Q511 893 457 810.5Q403 728 403 561ZM1176 561Q1176 288 1032 134Q888 -20 631 -20Q470 -20 347 50.5Q224 121 158 253Q92 385 92 561Q92 835 235 987Q378 1139 637 1139Q798 1139 921 1069Q1044 999 1110 868Q1176 737 1176 561Z"/></g><g transform="translate(11446 2048) scale (1 -1)"><path d="M1192 0L887 0L887 653Q887 774 844 834.5Q801 895 707 895Q579 895 522 809.5Q465 724 465 526L465 0L160 0L160 1118L393 1118L434 975L451 975Q502 1056 591.5 1097.5Q681 1139 795 1139Q990 1139 1091 1033.5Q1192 928 1192 729Z"/></g><g transform="translate(12792 2048) scale (1 -1)"><path d="M61 424L61 674L598 674L598 424Z"/></g><g transform="translate(13451 2048) scale (1 -1)"><path d="M623 219Q746 219 799 289.5Q852 360 852 518L852 555Q852 734 796.5 812.5Q741 891 618 891Q403 891 403 553Q403 385 456.5 302Q510 219 623 219ZM1137 -2Q1137 -243 996.5 -367.5Q856 -492 578 -492Q333 -492 160 -426L160 -182Q363 -268 596 -268Q831 -268 831 -14L831 8L840 145L831 145Q724 -20 514 -20Q313 -20 202.5 135Q92 290 92 557Q92 832 206.5 985.5Q321 1139 522 1139Q728 1139 846 975L854 975L879 1118L1137 1118Z"/></g><g transform="translate(14747 2048) scale (1 -1)"><path d="M784 1139Q846 1139 887 1130L864 844Q827 854 774 854Q628 854 546.5 779Q465 704 465 569L465 0L160 0L160 1118L391 1118L436 930L451 930Q503 1024 591.5 1081.5Q680 1139 784 1139Z"/></g><g transform="translate(15677 2048) scale (1 -1)"><path d="M623 922Q526 922 471 860.5Q416 799 408 686L836 686Q834 799 777 860.5Q720 922 623 922ZM666 -20Q396 -20 244 129Q92 278 92 551Q92 832 232.5 985.5Q373 1139 621 1139Q858 1139 990 1004Q1122 869 1122 631L1122 483L401 483Q406 353 478 280Q550 207 680 207Q781 207 871 228Q961 249 1059 295L1059 59Q979 19 888 -0.5Q797 -20 666 -20Z"/></g><g transform="translate(16887 2048) scale (1 -1)"><path d="M623 922Q526 922 471 860.5Q416 799 408 686L836 686Q834 799 777 860.5Q720 922 623 922ZM666 -20Q396 -20 244 129Q92 278 92 551Q92 832 232.5 985.5Q373 1139 621 1139Q858 1139 990 1004Q1122 869 1122 631L1122 483L401 483Q406 353 478 280Q550 207 680 207Q781 207 871 228Q961 249 1059 295L1059 59Q979 19 888 -0.5Q797 -20 666 -20Z"/></g><g transform="translate(18097 2048) scale (1 -1)"><path d="M1192 0L887 0L887 653Q887 774 844 834.5Q801 895 707 895Q579 895 522 809.5Q465 724 465 526L465 0L160 0L160 1118L393 1118L434 975L451 975Q502 1056 591.5 1097.5Q681 1139 795 1139Q990 1139 1091 1033.5Q1192 928 1192 729Z"/></g></g></g><g transform="translate(-491,-14)"><rect x="0" y="0" width="107" height="30" border="1" rx="10" ry="10" style="fill:#E0E0E0;stroke:#707070;stroke-width:1px;"/><g transform="translate (6 6) scale(0.005859375)" style="fill:#4F4F4F;"><g transform="translate(76.16666666666697 2048) scale (1 -1)"><path d="M494 774L596 774Q739 774 810 830.5Q881 887 881 995Q881 1104 821.5 1156Q762 1208 635 1208L494 1208ZM1194 1006Q1194 770 1046.5 645Q899 520 627 520L494 520L494 0L184 0L184 1462L651 1462Q917 1462 1055.5 1347.5Q1194 1233 1194 1006Z"/></g><g transform="translate(1362.166666666667 2048) scale (1 -1)"><path d="M870 0L811 152L803 152Q726 55 644.5 17.5Q563 -20 432 -20Q271 -20 178.5 72Q86 164 86 334Q86 512 210.5 596.5Q335 681 586 690L780 696L780 745Q780 915 606 915Q472 915 291 834L190 1040Q383 1141 618 1141Q843 1141 963 1043Q1083 945 1083 745L1083 0ZM780 518L662 514Q529 510 464 466Q399 422 399 332Q399 203 547 203Q653 203 716.5 264Q780 325 780 426Z"/></g><g transform="translate(2599.166666666667 2048) scale (1 -1)"><path d="M784 1139Q846 1139 887 1130L864 844Q827 854 774 854Q628 854 546.5 779Q465 704 465 569L465 0L160 0L160 1118L391 1118L436 930L451 930Q503 1024 591.5 1081.5Q680 1139 784 1139Z"/></g><g transform="translate(3529.166666666667 2048) scale (1 -1)"><path d="M631 223Q711 223 823 258L823 31Q709 -20 543 -20Q360 -20 276.5 72.5Q193 165 193 350L193 889L47 889L47 1018L215 1120L303 1356L498 1356L498 1118L811 1118L811 889L498 889L498 350Q498 285 534.5 254Q571 223 631 223Z"/></g><g transform="translate(4418.166666666667 2048) scale (1 -1)"><path d="M940 332Q940 160 820.5 70Q701 -20 463 -20Q341 -20 255 -3.5Q169 13 94 45L94 297Q179 257 285.5 230Q392 203 473 203Q639 203 639 299Q639 335 617 357.5Q595 380 541 408.5Q487 437 397 475Q268 529 207.5 575Q147 621 119.5 680.5Q92 740 92 827Q92 976 207.5 1057.5Q323 1139 535 1139Q737 1139 928 1051L836 831Q752 867 679 890Q606 913 530 913Q395 913 395 840Q395 799 438.5 769Q482 739 629 680Q760 627 821 581Q882 535 911 475Q940 415 940 332Z"/></g><g transform="translate(5968.166666666667 2048) scale (1 -1)"><path d="M403 561Q403 395 457.5 310Q512 225 635 225Q757 225 810.5 309.5Q864 394 864 561Q864 727 810 810Q756 893 633 893Q511 893 457 810.5Q403 728 403 561ZM1176 561Q1176 288 1032 134Q888 -20 631 -20Q470 -20 347 50.5Q224 121 158 253Q92 385 92 561Q92 835 235 987Q378 1139 637 1139Q798 1139 921 1069Q1044 999 1110 868Q1176 737 1176 561Z"/></g><g transform="translate(7236.166666666667 2048) scale (1 -1)"><path d="M778 889L514 889L514 0L209 0L209 889L41 889L41 1036L209 1118L209 1200Q209 1391 303 1479Q397 1567 604 1567Q762 1567 885 1520L807 1296Q715 1325 637 1325Q572 1325 543 1286.5Q514 1248 514 1188L514 1118L778 1118Z"/></g><g transform="translate(8561.166666666668 2048) scale (1 -1)"><path d="M778 889L514 889L514 0L209 0L209 889L41 889L41 1036L209 1118L209 1200Q209 1391 303 1479Q397 1567 604 1567Q762 1567 885 1520L807 1296Q715 1325 637 1325Q572 1325 543 1286.5Q514 1248 514 1188L514 1118L778 1118ZM1258 0L953 0L953 1556L1258 1556Z"/></g><g transform="translate(9978.166666666668 2048) scale (1 -1)"><path d="M403 561Q403 395 457.5 310Q512 225 635 225Q757 225 810.5 309.5Q864 394 864 561Q864 727 810 810Q756 893 633 893Q511 893 457 810.5Q403 728 403 561ZM1176 561Q1176 288 1032 134Q888 -20 631 -20Q470 -20 347 50.5Q224 121 158 253Q92 385 92 561Q92 835 235 987Q378 1139 637 1139Q798 1139 921 1069Q1044 999 1110 868Q1176 737 1176 561Z"/></g><g transform="translate(11246.166666666668 2048) scale (1 -1)"><path d="M1079 0L993 391L879 885L870 885L666 0L338 0L20 1118L324 1118L453 623Q475 535 514 256L522 256Q526 332 557 497L573 582L711 1118L1047 1118L1178 582Q1190 527 1207.5 420.5Q1225 314 1227 256L1235 256Q1246 345 1266 458.5Q1286 572 1300 623L1434 1118L1733 1118L1411 0Z"/></g><g transform="translate(12999.166666666668 2048) scale (1 -1)"><path d="M623 922Q526 922 471 860.5Q416 799 408 686L836 686Q834 799 777 860.5Q720 922 623 922ZM666 -20Q396 -20 244 129Q92 278 92 551Q92 832 232.5 985.5Q373 1139 621 1139Q858 1139 990 1004Q1122 869 1122 631L1122 483L401 483Q406 353 478 280Q550 207 680 207Q781 207 871 228Q961 249 1059 295L1059 59Q979 19 888 -0.5Q797 -20 666 -20Z"/></g><g transform="translate(14209.166666666668 2048) scale (1 -1)"><path d="M784 1139Q846 1139 887 1130L864 844Q827 854 774 854Q628 854 546.5 779Q465 704 465 569L465 0L160 0L160 1118L391 1118L436 930L451 930Q503 1024 591.5 1081.5Q680 1139 784 1139Z"/></g><g transform="translate(15139.166666666668 2048) scale (1 -1)"><path d="M940 332Q940 160 820.5 70Q701 -20 463 -20Q341 -20 255 -3.5Q169 13 94 45L94 297Q179 257 285.5 230Q392 203 473 203Q639 203 639 299Q639 335 617 357.5Q595 380 541 408.5Q487 437 397 475Q268 529 207.5 575Q147 621 119.5 680.5Q92 740 92 827Q92 976 207.5 1057.5Q323 1139 535 1139Q737 1139 928 1051L836 831Q752 867 679 890Q606 913 530 913Q395 913 395 840Q395 799 438.5 769Q482 739 629 680Q760 627 821 581Q882 535 911 475Q940 415 940 332Z"/></g></g></g><g transform="translate(-491,69)"><rect x="0" y="0" width="89" height="30" border="1" rx="10" ry="10" style="fill:#E0E0E0;stroke:#707070;stroke-width:1px;"/><g transform="translate (6 6) scale(0.005859375)" style="fill:#4F4F4F;"><g transform="translate(31.16666666666697 2048) scale (1 -1)"><path d="M1026 0L184 0L184 1462L1026 1462L1026 1208L494 1208L494 887L989 887L989 633L494 633L494 256L1026 256Z"/></g><g transform="translate(1178.166666666667 2048) scale (1 -1)"><path d="M389 571L29 1118L375 1118L592 762L811 1118L1157 1118L793 571L1174 0L827 0L592 383L356 0L10 0Z"/></g><g transform="translate(2362.166666666667 2048) scale (1 -1)"><path d="M403 561Q403 395 457.5 310Q512 225 635 225Q757 225 810.5 309.5Q864 394 864 561Q864 727 810 810Q756 893 633 893Q511 893 457 810.5Q403 728 403 561ZM1176 561Q1176 288 1032 134Q888 -20 631 -20Q470 -20 347 50.5Q224 121 158 253Q92 385 92 561Q92 835 235 987Q378 1139 637 1139Q798 1139 921 1069Q1044 999 1110 868Q1176 737 1176 561Z"/></g><g transform="translate(3630.166666666667 2048) scale (1 -1)"><path d="M631 223Q711 223 823 258L823 31Q709 -20 543 -20Q360 -20 276.5 72.5Q193 165 193 350L193 889L47 889L47 1018L215 1120L303 1356L498 1356L498 1118L811 1118L811 889L498 889L498 350Q498 285 534.5 254Q571 223 631 223Z"/></g><g transform="translate(4519.166666666667 2048) scale (1 -1)"><path d="M147 1407Q147 1556 313 1556Q479 1556 479 1407Q479 1336 437.5 1296.5Q396 1257 313 1257Q147 1257 147 1407ZM465 0L160 0L160 1118L465 1118Z"/></g><g transform="translate(5144.166666666667 2048) scale (1 -1)"><path d="M614 -20Q92 -20 92 553Q92 838 234 988.5Q376 1139 641 1139Q835 1139 989 1063L899 827Q827 856 765 874.5Q703 893 641 893Q403 893 403 555Q403 227 641 227Q729 227 804 250.5Q879 274 954 324L954 63Q880 16 804.5 -2Q729 -20 614 -20Z"/></g><g transform="translate(6729.166666666667 2048) scale (1 -1)"><path d="M494 774L596 774Q739 774 810 830.5Q881 887 881 995Q881 1104 821.5 1156Q762 1208 635 1208L494 1208ZM1194 1006Q1194 770 1046.5 645Q899 520 627 520L494 520L494 0L184 0L184 1462L651 1462Q917 1462 1055.5 1347.5Q1194 1233 1194 1006Z"/></g><g transform="translate(8015.166666666667 2048) scale (1 -1)"><path d="M465 0L160 0L160 1556L465 1556Z"/></g><g transform="translate(8640.166666666668 2048) scale (1 -1)"><path d="M870 0L811 152L803 152Q726 55 644.5 17.5Q563 -20 432 -20Q271 -20 178.5 72Q86 164 86 334Q86 512 210.5 596.5Q335 681 586 690L780 696L780 745Q780 915 606 915Q472 915 291 834L190 1040Q383 1141 618 1141Q843 1141 963 1043Q1083 945 1083 745L1083 0ZM780 518L662 514Q529 510 464 466Q399 422 399 332Q399 203 547 203Q653 203 716.5 264Q780 325 780 426Z"/></g><g transform="translate(9877.166666666668 2048) scale (1 -1)"><path d="M1192 0L887 0L887 653Q887 774 844 834.5Q801 895 707 895Q579 895 522 809.5Q465 724 465 526L465 0L160 0L160 1118L393 1118L434 975L451 975Q502 1056 591.5 1097.5Q681 1139 795 1139Q990 1139 1091 1033.5Q1192 928 1192 729Z"/></g><g transform="translate(11223.166666666668 2048) scale (1 -1)"><path d="M631 223Q711 223 823 258L823 31Q709 -20 543 -20Q360 -20 276.5 72.5Q193 165 193 350L193 889L47 889L47 1018L215 1120L303 1356L498 1356L498 1118L811 1118L811 889L498 889L498 350Q498 285 534.5 254Q571 223 631 223Z"/></g><g transform="translate(12112.166666666668 2048) scale (1 -1)"><path d="M940 332Q940 160 820.5 70Q701 -20 463 -20Q341 -20 255 -3.5Q169 13 94 45L94 297Q179 257 285.5 230Q392 203 473 203Q639 203 639 299Q639 335 617 357.5Q595 380 541 408.5Q487 437 397 475Q268 529 207.5 575Q147 621 119.5 680.5Q92 740 92 827Q92 976 207.5 1057.5Q323 1139 535 1139Q737 1139 928 1051L836 831Q752 867 679 890Q606 913 530 913Q395 913 395 840Q395 799 438.5 769Q482 739 629 680Q760 627 821 581Q882 535 911 475Q940 415 940 332Z"/></g></g></g><g transform="translate(-671,-212)"><rect x="0" y="0" width="55" height="30" border="1" rx="10" ry="10" style="fill:#22AAE0;stroke:#707070;stroke-width:1px;"/><g transform="translate (6 6) scale(0.005859375)" style="fill:#4F4F4F;"><g transform="translate(57.833333333333485 2048) scale (1 -1)"><path d="M774 -20Q577 -20 465 123L449 123Q465 -17 465 -39L465 -492L160 -492L160 1118L408 1118L451 973L465 973Q572 1139 782 1139Q980 1139 1092 986Q1204 833 1204 561Q1204 382 1151.5 250Q1099 118 1002 49Q905 -20 774 -20ZM684 895Q571 895 519 825.5Q467 756 465 596L465 563Q465 383 518.5 305Q572 227 688 227Q893 227 893 565Q893 730 842.5 812.5Q792 895 684 895Z"/></g><g transform="translate(1353.8333333333335 2048) scale (1 -1)"><path d="M465 0L160 0L160 1556L465 1556Z"/></g><g transform="translate(1978.8333333333335 2048) scale (1 -1)"><path d="M870 0L811 152L803 152Q726 55 644.5 17.5Q563 -20 432 -20Q271 -20 178.5 72Q86 164 86 334Q86 512 210.5 596.5Q335 681 586 690L780 696L780 745Q780 915 606 915Q472 915 291 834L190 1040Q383 1141 618 1141Q843 1141 963 1043Q1083 945 1083 745L1083 0ZM780 518L662 514Q529 510 464 466Q399 422 399 332Q399 203 547 203Q653 203 716.5 264Q780 325 780 426Z"/></g><g transform="translate(3215.8333333333335 2048) scale (1 -1)"><path d="M1192 0L887 0L887 653Q887 774 844 834.5Q801 895 707 895Q579 895 522 809.5Q465 724 465 526L465 0L160 0L160 1118L393 1118L434 975L451 975Q502 1056 591.5 1097.5Q681 1139 795 1139Q990 1139 1091 1033.5Q1192 928 1192 729Z"/></g><g transform="translate(4561.833333333334 2048) scale (1 -1)"><path d="M631 223Q711 223 823 258L823 31Q709 -20 543 -20Q360 -20 276.5 72.5Q193 165 193 350L193 889L47 889L47 1018L215 1120L303 1356L498 1356L498 1118L811 1118L811 889L498 889L498 350Q498 285 534.5 254Q571 223 631 223Z"/></g><g transform="translate(5450.833333333334 2048) scale (1 -1)"><path d="M61 424L61 674L598 674L598 424Z"/></g><g transform="translate(6109.833333333334 2048) scale (1 -1)"><path d="M1047 1135Q1047 998 964 902Q881 806 731 770L731 764Q908 742 999 656.5Q1090 571 1090 426Q1090 215 937 97.5Q784 -20 500 -20Q262 -20 78 59L78 322Q163 279 265 252Q367 225 467 225Q620 225 693 277Q766 329 766 444Q766 547 682 590Q598 633 414 633L303 633L303 870L416 870Q586 870 664.5 914.5Q743 959 743 1067Q743 1233 535 1233Q463 1233 388.5 1209Q314 1185 223 1126L80 1339Q280 1483 557 1483Q784 1483 915.5 1391Q1047 1299 1047 1135Z"/></g></g></g><g transform="translate(-792,-263)"><rect x="0" y="0" width="100" height="30" border="1" rx="10" ry="10" style="fill:#E0E0E0;stroke:#707070;stroke-width:1px;"/><g transform="translate (6 6) scale(0.005859375)" style="fill:#4F4F4F;"><g transform="translate(61.33333333333303 2048) scale (1 -1)"><path d="M494 774L596 774Q739 774 810 830.5Q881 887 881 995Q881 1104 821.5 1156Q762 1208 635 1208L494 1208ZM1194 1006Q1194 770 1046.5 645Q899 520 627 520L494 520L494 0L184 0L184 1462L651 1462Q917 1462 1055.5 1347.5Q1194 1233 1194 1006Z"/></g><g transform="translate(1347.333333333333 2048) scale (1 -1)"><path d="M870 0L811 152L803 152Q726 55 644.5 17.5Q563 -20 432 -20Q271 -20 178.5 72Q86 164 86 334Q86 512 210.5 596.5Q335 681 586 690L780 696L780 745Q780 915 606 915Q472 915 291 834L190 1040Q383 1141 618 1141Q843 1141 963 1043Q1083 945 1083 745L1083 0ZM780 518L662 514Q529 510 464 466Q399 422 399 332Q399 203 547 203Q653 203 716.5 264Q780 325 780 426Z"/></g><g transform="translate(2584.333333333333 2048) scale (1 -1)"><path d="M784 1139Q846 1139 887 1130L864 844Q827 854 774 854Q628 854 546.5 779Q465 704 465 569L465 0L160 0L160 1118L391 1118L436 930L451 930Q503 1024 591.5 1081.5Q680 1139 784 1139Z"/></g><g transform="translate(3514.333333333333 2048) scale (1 -1)"><path d="M631 223Q711 223 823 258L823 31Q709 -20 543 -20Q360 -20 276.5 72.5Q193 165 193 350L193 889L47 889L47 1018L215 1120L303 1356L498 1356L498 1118L811 1118L811 889L498 889L498 350Q498 285 534.5 254Q571 223 631 223Z"/></g><g transform="translate(4403.333333333333 2048) scale (1 -1)"><path d="M940 332Q940 160 820.5 70Q701 -20 463 -20Q341 -20 255 -3.5Q169 13 94 45L94 297Q179 257 285.5 230Q392 203 473 203Q639 203 639 299Q639 335 617 357.5Q595 380 541 408.5Q487 437 397 475Q268 529 207.5 575Q147 621 119.5 680.5Q92 740 92 827Q92 976 207.5 1057.5Q323 1139 535 1139Q737 1139 928 1051L836 831Q752 867 679 890Q606 913 530 913Q395 913 395 840Q395 799 438.5 769Q482 739 629 680Q760 627 821 581Q882 535 911 475Q940 415 940 332Z"/></g><g transform="translate(5953.333333333333 2048) scale (1 -1)"><path d="M403 561Q403 395 457.5 310Q512 225 635 225Q757 225 810.5 309.5Q864 394 864 561Q864 727 810 810Q756 893 633 893Q511 893 457 810.5Q403 728 403 561ZM1176 561Q1176 288 1032 134Q888 -20 631 -20Q470 -20 347 50.5Q224 121 158 253Q92 385 92 561Q92 835 235 987Q378 1139 637 1139Q798 1139 921 1069Q1044 999 1110 868Q1176 737 1176 561Z"/></g><g transform="translate(7221.333333333333 2048) scale (1 -1)"><path d="M778 889L514 889L514 0L209 0L209 889L41 889L41 1036L209 1118L209 1200Q209 1391 303 1479Q397 1567 604 1567Q762 1567 885 1520L807 1296Q715 1325 637 1325Q572 1325 543 1286.5Q514 1248 514 1188L514 1118L778 1118Z"/></g><g transform="translate(8546.333333333332 2048) scale (1 -1)"><path d="M774 -20Q577 -20 465 123L449 123Q465 -17 465 -39L465 -492L160 -492L160 1118L408 1118L451 973L465 973Q572 1139 782 1139Q980 1139 1092 986Q1204 833 1204 561Q1204 382 1151.5 250Q1099 118 1002 49Q905 -20 774 -20ZM684 895Q571 895 519 825.5Q467 756 465 596L465 563Q465 383 518.5 305Q572 227 688 227Q893 227 893 565Q893 730 842.5 812.5Q792 895 684 895Z"/></g><g transform="translate(9842.333333333332 2048) scale (1 -1)"><path d="M465 0L160 0L160 1556L465 1556Z"/></g><g transform="translate(10467.333333333332 2048) scale (1 -1)"><path d="M870 0L811 152L803 152Q726 55 644.5 17.5Q563 -20 432 -20Q271 -20 178.5 72Q86 164 86 334Q86 512 210.5 596.5Q335 681 586 690L780 696L780 745Q780 915 606 915Q472 915 291 834L190 1040Q383 1141 618 1141Q843 1141 963 1043Q1083 945 1083 745L1083 0ZM780 518L662 514Q529 510 464 466Q399 422 399 332Q399 203 547 203Q653 203 716.5 264Q780 325 780 426Z"/></g><g transform="translate(11704.333333333332 2048) scale (1 -1)"><path d="M1192 0L887 0L887 653Q887 774 844 834.5Q801 895 707 895Q579 895 522 809.5Q465 724 465 526L465 0L160 0L160 1118L393 1118L434 975L451 975Q502 1056 591.5 1097.5Q681 1139 795 1139Q990 1139 1091 1033.5Q1192 928 1192 729Z"/></g><g transform="translate(13050.333333333332 2048) scale (1 -1)"><path d="M631 223Q711 223 823 258L823 31Q709 -20 543 -20Q360 -20 276.5 72.5Q193 165 193 350L193 889L47 889L47 1018L215 1120L303 1356L498 1356L498 1118L811 1118L811 889L498 889L498 350Q498 285 534.5 254Q571 223 631 223Z"/></g><g transform="translate(13939.333333333332 2048) scale (1 -1)"><path d="M940 332Q940 160 820.5 70Q701 -20 463 -20Q341 -20 255 -3.5Q169 13 94 45L94 297Q179 257 285.5 230Q392 203 473 203Q639 203 639 299Q639 335 617 357.5Q595 380 541 408.5Q487 437 397 475Q268 529 207.5 575Q147 621 119.5 680.5Q92 740 92 827Q92 976 207.5 1057.5Q323 1139 535 1139Q737 1139 928 1051L836 831Q752 867 679 890Q606 913 530 913Q395 913 395 840Q395 799 438.5 769Q482 739 629 680Q760 627 821 581Q882 535 911 475Q940 415 940 332Z"/></g></g></g><g transform="translate(-852,-313)"><rect x="0" y="0" width="40" height="30" border="1" rx="10" ry="10" style="fill:#E0E0E0;stroke:#707070;stroke-width:1px;"/><g transform="translate (6 6) scale(0.005859375)" style="fill:#4F4F4F;"><g transform="translate(0.8333333333334849 2048) scale (1 -1)"><path d="M494 813L594 813Q741 813 811 862Q881 911 881 1016Q881 1120 809.5 1164Q738 1208 588 1208L494 1208ZM494 561L494 0L184 0L184 1462L610 1462Q908 1462 1051 1353.5Q1194 1245 1194 1024Q1194 895 1123 794.5Q1052 694 922 637L1352 0L1008 0L659 561Z"/></g><g transform="translate(1352.8333333333335 2048) scale (1 -1)"><path d="M403 561Q403 395 457.5 310Q512 225 635 225Q757 225 810.5 309.5Q864 394 864 561Q864 727 810 810Q756 893 633 893Q511 893 457 810.5Q403 728 403 561ZM1176 561Q1176 288 1032 134Q888 -20 631 -20Q470 -20 347 50.5Q224 121 158 253Q92 385 92 561Q92 835 235 987Q378 1139 637 1139Q798 1139 921 1069Q1044 999 1110 868Q1176 737 1176 561Z"/></g><g transform="translate(2620.8333333333335 2048) scale (1 -1)"><path d="M403 561Q403 395 457.5 310Q512 225 635 225Q757 225 810.5 309.5Q864 394 864 561Q864 727 810 810Q756 893 633 893Q511 893 457 810.5Q403 728 403 561ZM1176 561Q1176 288 1032 134Q888 -20 631 -20Q470 -20 347 50.5Q224 121 158 253Q92 385 92 561Q92 835 235 987Q378 1139 637 1139Q798 1139 921 1069Q1044 999 1110 868Q1176 737 1176 561Z"/></g><g transform="translate(3888.8333333333335 2048) scale (1 -1)"><path d="M631 223Q711 223 823 258L823 31Q709 -20 543 -20Q360 -20 276.5 72.5Q193 165 193 350L193 889L47 889L47 1018L215 1120L303 1356L498 1356L498 1118L811 1118L811 889L498 889L498 350Q498 285 534.5 254Q571 223 631 223Z"/></g></g></g><g transform="translate(-855,-263)"><rect x="0" y="0" width="43" height="30" border="1" rx="10" ry="10" style="fill:#E0E0E0;stroke:#707070;stroke-width:1px;"/><g transform="translate (6 6) scale(0.005859375)" style="fill:#4F4F4F;"><g transform="translate(26.333333333333485 2048) scale (1 -1)"><path d="M1047 406Q1047 208 904.5 94Q762 -20 508 -20Q274 -20 94 68L94 356Q242 290 344.5 263Q447 236 532 236Q634 236 688.5 275Q743 314 743 391Q743 434 719 467.5Q695 501 648.5 532Q602 563 459 631Q325 694 258 752Q191 810 151 887Q111 964 111 1067Q111 1261 242.5 1372Q374 1483 606 1483Q720 1483 823.5 1456Q927 1429 1040 1380L940 1139Q823 1187 746.5 1206Q670 1225 596 1225Q508 1225 461 1184Q414 1143 414 1077Q414 1036 433 1005.5Q452 975 493.5 946.5Q535 918 690 844Q895 746 971 647.5Q1047 549 1047 406Z"/></g><g transform="translate(1154.3333333333335 2048) scale (1 -1)"><path d="M631 223Q711 223 823 258L823 31Q709 -20 543 -20Q360 -20 276.5 72.5Q193 165 193 350L193 889L47 889L47 1018L215 1120L303 1356L498 1356L498 1118L811 1118L811 889L498 889L498 350Q498 285 534.5 254Q571 223 631 223Z"/></g><g transform="translate(2043.3333333333335 2048) scale (1 -1)"><path d="M623 922Q526 922 471 860.5Q416 799 408 686L836 686Q834 799 777 860.5Q720 922 623 922ZM666 -20Q396 -20 244 129Q92 278 92 551Q92 832 232.5 985.5Q373 1139 621 1139Q858 1139 990 1004Q1122 869 1122 631L1122 483L401 483Q406 353 478 280Q550 207 680 207Q781 207 871 228Q961 249 1059 295L1059 59Q979 19 888 -0.5Q797 -20 666 -20Z"/></g><g transform="translate(3253.3333333333335 2048) scale (1 -1)"><path d="M1161 0L856 0L856 653Q856 774 815.5 834.5Q775 895 688 895Q571 895 518 809Q465 723 465 526L465 0L160 0L160 1118L393 1118L434 975L451 975Q496 1052 581 1095.5Q666 1139 776 1139Q1027 1139 1116 975L1143 975Q1188 1053 1275.5 1096Q1363 1139 1473 1139Q1663 1139 1760.5 1041.5Q1858 944 1858 729L1858 0L1552 0L1552 653Q1552 774 1511.5 834.5Q1471 895 1384 895Q1272 895 1216.5 815Q1161 735 1161 561Z"/></g></g></g><g transform="translate(-850,-213)"><rect x="0" y="0" width="38" height="30" border="1" rx="10" ry="10" style="fill:#E0E0E0;stroke:#707070;stroke-width:1px;"/><g transform="translate (6 6) scale(0.005859375)" style="fill:#4F4F4F;"><g transform="translate(20.166666666666515 2048) scale (1 -1)"><path d="M184 0L184 1462L494 1462L494 256L1087 256L1087 0Z"/></g><g transform="translate(1177.1666666666665 2048) scale (1 -1)"><path d="M623 922Q526 922 471 860.5Q416 799 408 686L836 686Q834 799 777 860.5Q720 922 623 922ZM666 -20Q396 -20 244 129Q92 278 92 551Q92 832 232.5 985.5Q373 1139 621 1139Q858 1139 990 1004Q1122 869 1122 631L1122 483L401 483Q406 353 478 280Q550 207 680 207Q781 207 871 228Q961 249 1059 295L1059 59Q979 19 888 -0.5Q797 -20 666 -20Z"/></g><g transform="translate(2387.1666666666665 2048) scale (1 -1)"><path d="M870 0L811 152L803 152Q726 55 644.5 17.5Q563 -20 432 -20Q271 -20 178.5 72Q86 164 86 334Q86 512 210.5 596.5Q335 681 586 690L780 696L780 745Q780 915 606 915Q472 915 291 834L190 1040Q383 1141 618 1141Q843 1141 963 1043Q1083 945 1083 745L1083 0ZM780 518L662 514Q529 510 464 466Q399 422 399 332Q399 203 547 203Q653 203 716.5 264Q780 325 780 426Z"/></g><g transform="translate(3624.1666666666665 2048) scale (1 -1)"><path d="M778 889L514 889L514 0L209 0L209 889L41 889L41 1036L209 1118L209 1200Q209 1391 303 1479Q397 1567 604 1567Q762 1567 885 1520L807 1296Q715 1325 637 1325Q572 1325 543 1286.5Q514 1248 514 1188L514 1118L778 1118Z"/></g></g></g></g></svg>